<svg width="1080" height="1291" viewBox="0 0 1080 1291" fill="none" xmlns="http://www.w3.org/2000/svg">
<g clip-path="url(#clip0_676_1333)">
<path d="M1400.55 787.716V790.368M1400.55 787.716L1372.42 801.175L1336.53 806.677L1320.03 805.301L1318.64 799.898L1324.7 788.993L1341.1 778.285L1400.55 762.861L1400.55 787.716ZM1400.55 790.368V897.648L1382.16 897.452L1352.44 897.747L1319.23 899.318L1307.9 898.336L1296.07 899.122H1274.2L1234.03 899.908L1226.78 904.132L1224.89 900.596L1207.29 898.336L1207.09 889.986L1213.95 881.832L1219.02 863.755L1230.75 856.583L1236.72 843.812L1271.12 820.823L1276.29 820.627L1278.08 827.307L1276.48 832.121L1280.66 836.739L1281.45 829.96L1279.96 827.7L1278.27 820.332L1288.61 819.939L1319.03 806.971L1336.13 808.543L1372.02 803.042V815.813L1369.74 820.43L1367.65 821.216L1365.36 838.605L1372.52 831.826L1374.11 824.458L1371.62 820.823L1374.51 816.304L1373.91 803.435L1400.55 790.368ZM1306.21 430.607L1299.95 438.859L1292.39 444.361L1289.21 441.119L1291.5 430.116L1296.86 422.944L1305.91 419.702M1306.21 430.607L1307.8 423.239L1305.91 419.702M1306.21 430.607L1307.7 423.239L1305.91 419.702M1317.74 396.616L1314.26 410.566L1313.96 418.229L1318.24 419.113L1323.41 403.591L1323.91 401.135L1322.31 393.177L1321.12 392.882L1317.74 396.616ZM1317.74 396.616L1321.12 392.882L1322.31 393.079L1323.9 401.036L1323.41 403.492L1318.24 419.015L1313.96 418.13L1314.26 410.566L1317.74 396.616ZM1312.07 368.125L1306.91 393.177M1312.07 368.125L1307.9 360.364L1295.17 387.676L1296.47 400.054L1299.95 405.163L1306.91 393.177M1312.07 368.125L1307.9 360.266L1295.17 387.577L1296.47 399.956L1299.85 405.064L1306.91 393.177M1096.15 284.227L1101.12 285.209L1095.05 289.729M1096.15 284.227L1089.09 287.273L1095.05 289.729M1096.15 284.227L1101.12 285.308L1095.05 289.729M811.125 80.0807L796.71 31.3528L793.33 19.8585L790.944 3.45215L794.523 -1.55816L808.441 15.2411L823.254 49.4293L828.324 77.8211L827.131 99.2378L824.049 113.876L819.774 118.788L815.102 106.999L811.125 80.0807ZM811.125 80.0807L796.809 31.3528L793.329 19.8585L790.944 3.45215L794.522 -1.55816L808.441 15.2411L823.253 49.4293L828.323 77.9194L827.13 99.2378L824.148 113.974L819.873 118.788L815.201 107.097L811.125 80.0807ZM956.171 543.094L935.99 550.462M956.171 543.094L980.826 526.982L979.334 524.821L969.194 530.421L950.107 532.287L938.077 540.638L915.61 552.623L921.773 553.901L935.99 550.462M956.171 543.094L980.726 527.081L979.335 524.919L969.095 530.421L950.007 532.287L937.978 540.736L915.511 552.722L921.674 553.999L935.99 550.462M1016.12 403.099L1019.9 400.643L1027.85 411.843M1016.12 403.099L1007.37 429.428L985.001 468.823L989.773 483.166L987.685 502.52L1008.96 483.854L1025.76 468.136L1033.52 455.659L1036.1 443.477L1027.85 411.843M1016.12 403.099L1007.47 429.33L985.1 468.725L989.872 483.068L987.785 502.422L1009.06 483.756L1025.86 468.037L1033.61 455.659L1036.1 443.379L1027.85 411.843M978.042 446.915L988.978 440.824L991.662 443.28L981.024 457.034L977.147 451.14L978.042 446.915ZM978.042 446.915L988.978 440.923L991.662 443.379L981.124 457.133L977.147 451.238L978.042 446.915ZM941.458 492.991L974.463 479.924M941.458 492.991L927.44 511.264L928.534 515.292L937.58 518.435L949.908 520.891L970.487 508.513L970.884 503.502L973.37 503.994L976.551 488.668L974.463 479.924M941.458 492.991L927.341 511.165L928.435 515.193L937.481 518.337L949.809 520.793L970.487 508.415L970.885 503.404L973.37 503.896L976.452 488.668L974.463 479.924M921.376 518.239L936.884 521.383M921.376 518.239L894.236 537.494L895.23 542.112L902.189 542.898L925.352 536.806L943.843 525.312L936.884 521.383M921.376 518.239L894.136 537.593L895.131 542.21L902.09 542.996L925.253 536.905L943.744 525.312L936.884 521.383M710.617 1012.98L713.202 1016.03L708.43 1032.93L703.161 1042.65L698.29 1044.23L705.348 1016.32L710.617 1012.98ZM710.617 1012.98L713.202 1016.13L708.331 1032.93L703.161 1042.75L698.29 1044.32L705.348 1016.42L710.617 1012.98ZM688.646 1025.76L697.693 997.658M688.646 1025.76L688.547 1032.63L692.126 1030.86L697.991 1014.85L702.068 995.301L701.471 995.202L697.693 997.658M688.646 1025.76L688.448 1032.73L692.027 1030.96L697.992 1014.95L701.968 995.399L701.372 995.202L697.693 997.658M947.621 -124.655L947.223 -122.788L942.849 -117.287L915.51 -100.487L913.124 -88.8949L897.218 -87.0283L859.937 -59.5207L854.171 -47.3387L844.827 -51.7595L836.774 -43.802L826.037 -26.2167L817.885 -20.9117L812.517 -28.9675L813.909 -35.6479L945.931 -125.441L947.621 -124.655ZM947.621 -124.655L947.323 -122.788L942.949 -117.385L915.61 -100.586L913.224 -88.9932L897.317 -87.1266L860.037 -59.6189L854.37 -47.437L844.926 -51.8578L836.873 -43.9003L826.137 -26.4132L817.885 -21.0099L812.517 -29.164L813.909 -35.8444L945.931 -125.637L947.621 -124.655ZM831.207 776.32L843.832 777.597L846.815 782.018L845.522 788.109L826.634 798.326M831.207 776.32L815.002 785.751L817.289 799.603M831.207 776.32L843.733 777.597L846.715 782.018L845.423 788.207L826.634 798.326M831.207 776.32L815.002 785.849L817.289 799.603M826.634 798.326L817.289 799.603M-61.1376 1190.21L-58.8511 1185.99L-54.8745 1179.7L-53.5822 1174.69L-51.5939 1168.6L-49.8044 1160.64L-46.822 1154.45L-43.243 1145.32L-41.8512 1141.29L-39.6641 1136.18L-38.3717 1131.17L-37.2782 1125.18L-36.0852 1120.26L-34.1963 1113.19L-32.0092 1108.08L-30.2198 1100.12L-27.8338 1096L-27.4361 1092.07L-26.2432 1087.06L-27.0385 1081.36L-27.9332 1074.78L-29.6233 1070.16L-31.2139 1065.64L-31.711 1061.81L-34.594 1055.52L-36.3834 1049.92L-38.67 1047.37L-42.5471 1047.96L-44.7342 1046.29L-48.0149 1043.83L-50.3015 1041.28L-54.6757 1038.04L-53.9798 1036.07L-46.6231 1033.12L-44.0384 1030.77L-41.6524 1026.64L-44.6349 1026.05L-49.6056 1025.76H-56.3658L-61.4359 1024.58L-62.0324 1020.75L-62.43 1017.99L-60.9388 1014.85L-59.3482 1011.81L-56.7634 1009.45L-54.3775 1012.98L-51.4944 1012.59L-51.8921 1009.74L-50.4009 1006.6L-30.3191 1003.85L-26.2432 1005.22L-21.2724 1005.52L-17.1964 1006.79L-11.2316 1007.88L-6.26085 1008.17L16.6045 1005.03L22.3705 1004.14L25.353 1004.73L25.0547 1002.87L24.6571 1000.02L26.2477 996.971L31.6161 994.22L35.4932 993.729L38.4757 994.22L40.5634 994.908L42.7505 996.578L45.8323 998.051L49.7095 997.462L53.5867 997.953L58.5574 998.15L63.3293 997.56L66.9082 995.104L70.3877 992.648L73.9667 990.29L76.5514 987.933L80.2298 986.459L81.6216 982.431L82.2181 979.484L83.5105 975.456L85.6976 970.347L87.3876 968.186L90.0718 966.811L92.0601 966.516L93.949 966.221L96.9314 966.811L99.1185 968.481L101.306 970.053L104.288 970.642L107.171 970.151L109.855 968.874L112.539 966.614L114.23 965.337L116.317 966.025L119.3 966.614L121.487 968.186L124.668 969.66L127.949 972.116L135.305 975.947L138.387 977.421L142.761 980.663L144.949 982.235L147.434 985.771L150.814 989.111L154.492 994.417L161.551 1003.06L166.024 1007.29L169.206 1008.76L172.089 1008.37L175.866 1007.78L177.656 1006.6L179.147 1003.45L180.837 1001.29L183.124 997.167L184.615 994.024L186.305 991.862L188.989 990.585L192.568 988.129L197.241 986.557L201.814 984.887L205.492 983.414L209.369 982.922L212.053 981.547L213.743 979.386L216.229 976.144L221.299 970.642L222.89 968.481L224.679 967.302L228.457 966.713L233.129 965.141L235.018 964.846L237.205 966.516L239.392 968.088L241.679 970.642L244.264 975.161L245.655 977.814L247.147 981.449L249.731 985.968L251.123 988.62L251.62 992.354L253.509 998.838L254.901 1008.37L254.205 1010.33L253.012 1015.34L252.614 1019.27L254.106 1022.91L257.486 1026.25L261.86 1029.49L272.994 1039.51L275.182 1041.08L276.573 1043.83L277.866 1046.48L278.76 1052.18L279.357 1056.9L281.743 1059.45L285.222 1063.78L290.193 1070.85L292.579 1074.29L296.556 1074.78L300.532 1075.17L305.404 1075.47L310.474 1076.64L314.45 1077.04L317.433 1077.63L320.614 1079.1L323.696 1080.57L326.877 1082.05L332.047 1084.21L337.117 1085.49L341.988 1085.68L346.76 1085.09L351.83 1086.27L357.497 1085.49L360.777 1087.94L366.245 1091.97L373.801 1096.69L379.269 1100.71L390.005 1107.89L399.549 1113.29L403.327 1112.8L407.999 1111.13L411.678 1109.65L425.099 1107.79L429.871 1107.2L432.952 1108.67L436.134 1110.15L439.514 1113.49L443.789 1115.84L449.356 1120.85L456.017 1126.65L461.584 1131.66L466.256 1136.77L467.549 1139.42L469.239 1144.04L471.128 1150.52L470.531 1153.47L468.94 1155.63L465.063 1156.22L460.192 1155.93L454.426 1156.71L449.654 1157.4L447.268 1160.64L443.789 1163.98L443.291 1166.93L443.689 1169.78L446.274 1187.66L448.461 1200.63V1209.96L446.274 1214.87L441.204 1219.29H436.134L430.268 1217.33L425.795 1219.29V1228.13L430.368 1254.17V1264.97L426.59 1271.85L425.099 1278.73V1286.59L427.584 1292.87H-106.57V1215.07L-104.681 1212.61M-61.1376 1190.21L-63.3248 1195.32L-67.5996 1199.74M-61.1376 1190.21L-58.8511 1186.09L-54.8745 1179.8L-53.6816 1174.79L-51.5939 1168.7L-49.8044 1160.74L-46.822 1154.55L-43.243 1145.41L-41.8512 1141.39L-39.6641 1136.28L-38.4711 1131.27L-37.3776 1125.37L-36.1846 1120.36L-34.2957 1113.39L-32.1086 1108.28L-30.3191 1100.32L-28.0326 1096.19L-27.635 1092.27L-26.442 1087.25L-27.2373 1081.56L-28.2315 1074.97L-31.4127 1065.74L-31.9098 1062.01L-34.7928 1055.72L-36.5823 1050.22L-38.8688 1047.66L-42.6466 1048.15L-44.8337 1046.48L-48.1144 1044.03L-50.4009 1041.47L-54.7751 1038.23L-54.0792 1036.17L-46.7225 1033.22L-44.1378 1030.96L-41.8512 1026.84L-44.8337 1026.25L-49.705 1025.95H-56.5646L-61.6347 1024.77L-62.1318 1021.04L-62.5295 1018.19L-61.0382 1015.15L-59.547 1012L-56.9622 1009.74L-54.5763 1013.28L-51.6933 1012.89L-52.0909 1010.04L-50.5997 1006.89L-30.518 1004.14L-26.442 1005.52L-21.5707 1005.81L-17.4947 1007.19L-11.5298 1008.27L-6.65851 1008.56L21.9728 1004.63L24.9553 1005.22L24.657 1003.36L24.2594 1000.51L25.7506 997.462L31.119 994.711L34.8967 994.22L37.8792 994.711L39.9669 995.399L42.154 997.069L45.3353 998.543L49.113 998.051L53.0896 998.444L57.9609 998.739L62.7328 998.051L73.4696 990.683L76.0543 988.424L79.7327 986.95L81.1245 982.922L81.7209 979.975L83.1127 975.947L85.2999 970.838L86.9899 968.677L89.6741 967.302L93.4519 966.712L96.4343 967.302L98.6214 968.972L100.809 970.544L103.791 971.133L106.674 970.74L109.358 969.365L111.943 967.105L113.732 965.926L115.82 966.614L118.803 967.204L120.99 968.874L124.171 970.347L127.452 972.803L134.808 976.537L137.99 978.01L142.364 981.252L144.551 982.922L147.036 986.459L150.416 989.799L154.095 995.104L161.153 1003.75L165.627 1007.97L168.808 1009.45L171.691 1009.05L175.469 1008.56L177.258 1007.38L178.75 1004.24L180.44 1002.08L182.726 997.953L184.217 994.809L185.907 992.648L188.592 991.273L192.17 988.817L201.515 985.673L205.194 984.199L208.972 983.708L211.656 982.333L213.246 980.171L215.732 976.929L220.802 971.428L222.492 969.267L224.281 968.088L228.059 967.498L232.732 965.926L234.62 965.632L236.808 967.204L238.995 968.874L241.281 971.428L243.866 975.849L245.258 978.501L246.749 982.136L249.334 986.557L250.726 989.308L251.223 993.041L253.112 999.525L254.503 1008.96L253.807 1011.02L252.614 1016.03L252.217 1019.96L253.708 1023.59L257.088 1026.93L261.462 1030.18L272.597 1040.2L274.784 1041.87L277.568 1047.37L278.363 1053.07L279.059 1057.78L281.345 1060.34L284.924 1064.66L292.38 1075.27L300.333 1076.06L305.205 1076.35L310.275 1077.53L314.251 1077.92L317.234 1078.51L326.778 1082.93L331.947 1085.09L337.017 1086.27L341.889 1086.57L346.661 1085.88L351.731 1087.06L357.497 1086.27L360.777 1088.73L366.245 1092.76L373.701 1097.47L379.169 1101.5L389.906 1108.67L399.45 1114.07L403.227 1113.49L407.9 1111.91L411.578 1110.44L424.999 1108.57L429.771 1107.89L436.134 1110.83L439.514 1114.17L443.788 1116.43L449.356 1121.44L456.017 1127.24L461.584 1132.25L466.256 1137.36L467.648 1140.01L469.239 1144.63L471.127 1151.11L470.531 1154.06L468.841 1156.22L465.063 1156.71L460.192 1156.42L454.426 1157.2L449.654 1157.89L447.169 1161.13L443.788 1164.47L443.192 1167.42L443.59 1170.27L444.683 1177.83L446.174 1188.25L448.362 1201.12V1210.45L446.174 1215.36L441.104 1219.78H436.034L430.169 1217.82L425.695 1219.78V1228.62L430.268 1254.66V1265.47L426.49 1272.34L424.999 1279.22V1287.08L427.485 1293.37M-67.5996 1199.74L-72.8686 1203.38L-75.5527 1205.64L-78.1375 1207.99L-86.886 1208.19M-67.5996 1199.74L-72.968 1203.38L-78.1375 1207.9L-86.886 1208.19M-86.886 1208.19L-94.6403 1208.29M-94.6403 1208.29L-99.5116 1208.09L-102.295 1209.37L-104.681 1212.61M-94.6403 1208.29L-99.5116 1207.99L-102.196 1209.37L-104.681 1212.61M631.881 -187.628L626.115 -183.6L616.67 -178.688L612.694 -170.337L609.214 -157.075L605.238 -143.321L596.787 -129.076L585.852 -117.778L575.413 -110.213L548.273 -94.8877L539.823 -92.7264L534.057 -91.9404L531.572 -88.6985L527.197 -78.4813L529.881 -66.2993L530.975 -58.7347L529.583 -54.7068L526.402 -49.5L523.022 -46.1598L516.759 -42.4266L509.004 -42.3284L501.349 -41.2477L492.502 -41.9354L491.309 -43.7037L489.817 -47.3387L484.747 -48.5176L476.695 -50.2859L461.783 -52.0543L448.859 -54.1174L421.321 -49.3035L414.859 -47.4369M631.881 -187.628L626.214 -183.6L616.77 -178.688L612.793 -170.337L609.314 -157.075L605.337 -143.321L596.887 -129.076L585.951 -117.778L575.513 -110.213L548.373 -94.8877L539.922 -92.7264L534.156 -91.9404L531.671 -88.6985L527.297 -78.4813L529.981 -66.2993L531.074 -58.7347L529.683 -54.7068L526.501 -49.5L523.121 -46.1598L516.858 -42.4266L509.104 -42.3284L501.449 -41.2477L492.601 -41.9354L491.408 -43.7037L489.917 -47.3387L484.847 -48.5176L476.794 -50.2859L461.882 -52.0543L448.958 -54.1174L421.42 -49.3035L414.859 -47.4369M631.881 -187.628H157.574L158.568 -185.368L159.463 -184.091M414.859 -47.4369L405.017 -41.2477L395.97 -36.1391L390.204 -35.3532L371.117 -32.7007L362.467 -31.5218L354.315 -34.2725L348.45 -41.1495L344.275 -50.1877L340.298 -57.3594L333.438 -64.138L325.485 -71.7026L319.918 -76.713L314.152 -82.6075L305.304 -83.2952L300.532 -82.6075L291.486 -84.2776L279.456 -86.4389L268.521 -87.8143L255.1 -85.9477L245.954 -81.8215L240.784 -83.9828L236.41 -87.2248L226.568 -87.8143L220.205 -91.744L212.849 -95.5754L198.931 -97.442L189.685 -100.979L180.738 -109.329L177.159 -120.431L175.966 -128.978L169.603 -132.907L168.609 -139.489L170.796 -144.598L175.568 -145.286L172.884 -150.689L165.925 -158.352L165.13 -164.05L163.738 -173.481L166.024 -177.705L159.264 -184.386M433.847 1292.87L431.759 1290.03L430.268 1287.57L429.274 1285.11L428.777 1282.17L429.274 1277.75L431.759 1273.82L434.245 1269.4L435.239 1264.97V1254.17L434.245 1247.29L432.256 1235.99L430.268 1229.61L428.777 1224.2L430.268 1221.75L432.256 1220.77L435.239 1222.73L438.221 1223.22H442.198L445.18 1221.75L448.461 1219.29L450.648 1214.87L452.04 1209.96V1198.17L450.648 1192.28L449.057 1187.36L448.362 1182.65L447.566 1176.95L446.572 1170.37L446.87 1165.55L449.455 1163.29L451.94 1160.05L455.718 1159.56L460.59 1159.86L468.244 1158.77L471.127 1158.38L474.408 1154.06L474.011 1151.21L472.221 1145.71L471.525 1140.99L468.642 1134.71L466.356 1132.15L455.221 1122.13L447.268 1114.57L442.794 1110.34L435.338 1105.63L430.268 1104.45L426.49 1104.94L419.83 1105.82L415.058 1106.51L411.28 1107L407.602 1108.48L402.929 1110.05L400.046 1110.44L392.59 1105.72L379.467 1096L368.929 1089.71L363.462 1085.68L360.28 1084.21L356.005 1081.95H349.146L346.164 1081.46L340.397 1082.24L337.415 1081.66L333.438 1081.26L330.158 1078.81L325.883 1076.55L322.702 1075.07L317.632 1073.89L314.649 1073.4L308.784 1073.21L300.83 1072.42L294.965 1072.32L291.386 1068L288.901 1064.46L287.509 1061.71L284.129 1058.37L281.643 1054.84L280.649 1048.25L279.854 1042.55L277.369 1039.02L274.088 1036.56L270.708 1033.22L266.433 1030.96L263.053 1027.62L261.661 1024.87L258.48 1023.4L255.995 1019.86L255.597 1017.01L255.895 1012.2L257.088 1007.19L256.392 1002.47L254.404 989.308L251.819 984.887L246.749 976.929L244.065 971.526L241.48 967.105L238.199 964.649L236.012 962.979L228.457 963.962L223.784 965.533L220.007 966.123L217.521 969.365L213.246 973.786L210.761 977.028L207.381 980.368L201.814 982.136L195.252 984.003L190.48 984.691L184.217 988.424L180.638 990.88L177.656 997.069L175.469 1002.18L172.884 1004.44L170.995 1004.73L168.112 1005.12L166.919 1003.36L164.732 1001.78L162.446 999.23L159.96 995.694L157.674 993.139L153.001 988.031L145.843 979.385L141.469 976.144L136.001 972.116L129.639 968.186L123.475 966.123L116.118 962.292L112.341 962.783L108.762 965.239L106.078 966.614L102.3 967.105L99.0191 964.649L94.9431 963.274L91.1653 963.765L86.3934 964.453L83.7092 965.828L81.4227 969.954L79.9315 973L78.0426 979.975L75.7561 984.101L70.3877 987.736L61.6393 994.809L54.9785 995.694L48.8148 993.631L44.0429 994.318L42.6511 991.567L46.23 989.111L49.5107 984.789L56.9667 975.063L58.0603 969.168L56.8673 960.72L56.9667 954.923L52.3937 922.798L53.0896 920.833L55.2767 915.725L58.458 910.518L57.0662 907.866L53.7855 905.41L51.499 902.855L51.2007 900.989L49.113 886.842L43.9435 884.681L32.5108 886.252L30.0254 882.716L25.5518 878.491L21.774 872.302L16.008 866.408L12.4291 862.085L9.34723 853.833L7.35893 839.588L7.75658 835.658L11.5343 835.167L16.4057 835.461L30.8208 833.497L34.4991 832.023L36.9844 828.781L41.0604 823.378L45.037 816.992L51.2007 812.276L52.9902 811.097L54.382 807.07L56.8673 803.828L52.4931 800.586L48.4171 799.21L44.1423 796.951L41.6569 793.414L35.8909 787.52L32.6102 785.064L31.4172 783.295L31.0196 780.446L31.7155 778.383L35.4932 777.794L40.5634 778.972L47.6218 780.839L57.7621 783.295L60.0486 785.849L62.9316 785.456L63.7269 784.376L62.3351 781.625L58.7562 777.302L50.2066 772.783L43.9435 769.836L38.8733 768.657L35.0956 762.468L34.5985 758.735L35.195 755.787L36.9844 754.609L44.54 753.626L48.6159 755.002L55.8732 757.85L62.0369 759.914L71.4813 764.335L76.6508 766.496L79.5339 766.103L83.3116 765.611L84.0075 763.549L83.7092 761.682L83.3116 758.833L82.8145 755.1L81.4227 752.349L80.2297 750.581L78.8379 747.928L78.3409 744.195L79.0368 742.132L80.7268 739.971L82.3175 737.809L81.9198 734.96L81.6215 733.094L79.4344 731.424L78.9374 727.69L79.5339 724.743L82.1186 722.483L83.5104 718.455L82.3175 716.687L73.7678 704.407L81.1245 701.46L80.3292 695.762L78.9374 693.109L67.8029 683.088L66.2123 678.471L66.9082 676.408L75.7561 670.317L76.1537 666.387L77.3467 661.377L82.4169 649.097L85.0017 640.059L85.797 632.199L84.4052 622.768L82.1186 613.435L66.8088 602.039L57.1656 602.432L41.2593 586.32L37.8792 582.98L37.3821 579.247L39.8674 576.005L54.7796 577.773L66.8088 573.254L68.8965 567.163L59.2533 560.778L42.0546 563.135L29.5284 557.241L24.0606 553.213L20.7799 550.757L21.3764 547.81L23.0664 545.648L26.0488 546.238L30.1248 547.613L34.8967 546.925L42.8499 541.031L43.2476 537.101L42.8499 534.252L40.5634 531.698L35.2944 528.554L24.3588 520.4L18.891 516.372L17.8969 508.906L19.6863 507.727L24.0606 504.19L27.6395 501.734L28.0371 497.805L26.2477 492.303L29.8266 489.847L33.9026 484.444L36.1891 480.219L38.3762 475.111L35.4932 462.045L37.9786 458.803L39.4698 455.659L42.8499 452.319L43.2476 448.389L42.5517 443.673L42.0546 433.162L28.236 425.499L24.16 424.123L16.1074 422.355L5.1718 420.98L-3.179 417.345L-5.76379 412.924L-10.2374 408.699L-10.6351 405.85L-12.8222 404.18L-18.9859 402.117L-28.132 399.563L-45.7284 392.391L-56.0675 388.069L-59.3482 384.827L-59.8453 381.093L-59.2488 378.146L-57.3599 377.851L-45.9272 382.96L-44.0384 382.665L-42.6466 378.637L-41.9507 376.574L-39.0676 376.181L-35.0911 376.574L-33.9975 370.68L-49.3073 366.063L-54.3775 364.884L-59.9447 359.873L-57.6581 355.649L-39.5647 359.873L-37.6758 352.898L-49.8044 349.754L-55.7693 348.674L-58.0558 346.119L-58.5529 342.386L-55.6698 341.993L-51.5939 343.369H-44.7342L-40.7577 343.762L-44.0384 341.306L-51.2956 338.457L-60.5412 334.92L-69.5879 333.25L-78.8334 329.713L-86.2895 324.997L-95.9327 318.612L-100.307 315.37L-101.401 307.805L-95.8333 306.037L-95.038 304.956L-101.699 299.16L-102.693 292.578L-89.272 290.711L-89.5702 288.845L-88.8743 286.781L-88.079 278.922L-85.7924 274.698L-84.3012 271.554L-86.5878 269L-89.4708 269.393L-93.7456 267.133L-97.1257 263.793L-98.7163 259.175L-99.7105 252.593L-100.406 247.878L-97.5233 247.485L-87.3831 249.941L-81.4182 251.021L-76.3481 252.2L-67.699 251.021L-61.0382 250.039L-60.6406 246.109L-62.7283 245.422L-65.0148 242.867L-64.4183 239.92L-64.5178 238.938L-59.8453 237.366L-59.05 236.285L-60.4418 233.633L-60.9388 229.899L-63.2254 227.345L-63.623 224.496L-49.8044 225.479L-50.4009 222.728L-62.2312 221.451L-63.0265 215.753L-72.8686 208.483L-76.4475 204.16L-78.0381 199.543L-78.734 194.827L-79.1317 191.978L-71.775 189.031L-67.4008 185.494L-61.2371 174L-73.7633 161.327L-76.3481 156.906L-80.1258 150.717L-81.3188 148.948L-83.5059 133.819L-86.3889 127.433L-88.1784 121.932L-87.0848 116.037L-86.4883 113.09L-82.9094 110.634L-74.7574 106.606L-72.0732 105.231L-68.0967 105.624L-64.3189 105.132L-56.9622 102.185L-57.4593 98.452L-58.9505 94.8171L-70.6814 81.0632L-65.5119 76.4459L-53.781 83.5193L-50.5003 79.1966L-60.3423 71.9268L-65.8101 67.8988L-66.3072 64.1656L-65.6113 62.1026L-62.7283 61.7096L-58.6523 63.085L-53.8804 62.3973L-51.1962 61.0219L-48.3132 60.6289L-43.5413 59.9413L-38.8688 58.3694L-34.0969 57.6817L-31.5121 55.4221L-32.5063 48.84L-31.0151 45.6962L-28.5297 42.4542L-26.7402 41.2753L-23.8572 40.8824L-17.8923 41.963L-13.8164 43.3384L-8.44796 40.5876L-3.57666 40.8824L1.19522 40.1947L5.27123 41.5701L8.5519 44.0261L12.8267 46.2857L16.1074 48.7417L24.2594 51.4925L30.4231 53.5555L40.3645 55.0292L51.6978 59.2536L61.9375 62.5938L69.9901 64.3622L79.5339 62.9867L87.1888 61.9061L93.0542 62.0043L96.2355 63.478L100.311 64.8533L107.569 67.7024L113.732 69.7654L123.177 74.1863L130.931 80.7685L140.773 88.0384L143.954 89.512L145.843 89.2173L149.025 90.6909L155.685 96.4872L163.141 101.203L170.796 100.122L172.188 96.0942L174.674 92.8523L173.878 87.1542L172.387 83.5193L168.709 78.2142L168.311 75.3652L170.896 73.1057L177.557 65.4428L166.522 56.4046L166.323 54.7345L169.902 52.2784L172.486 50.0189L178.75 52.9661L186.206 57.6817L195.451 61.2184L199.229 60.7272L202.907 59.2536L207.381 56.6993L214.738 53.752L222.691 47.8575L233.328 40.5876L243.071 33.416L249.234 28.7004L251.421 23.5918L252.813 19.5639L251.72 11.9993L253.112 7.97139L255.199 1.88042L254.404 -3.81762L254.304 -11.4805L253.609 -22.9748L251.819 -35.255L250.03 -40.7565L249.234 -46.4545L247.246 -53.9209L244.761 -57.4576L240.088 -62.5662L238.696 -65.2187L238.199 -68.9519L239.889 -71.1132L243.468 -73.5692L244.86 -77.5971L246.65 -78.776L249.533 -79.169L255 -81.8215L260.568 -83.5899L266.334 -84.3758L269.316 -83.7864L274.187 -83.4916L277.07 -83.8846L280.053 -83.2952L284.129 -81.9198L288.105 -81.5268L292.181 -80.1514L296.158 -79.7585L302.023 -79.6602L306.895 -79.3655L310.673 -79.8567L313.655 -79.2672L323 -69.0501L331.053 -60.5031L336.819 -54.6086L339.304 -51.0719L344.473 -42.1319L348.45 -34.9602L353.918 -30.9323L358.193 -28.6728L363.064 -28.378L371.614 -29.5569L390.701 -32.2095L396.467 -32.9954L405.613 -37.1216L415.555 -42.3284L422.017 -45.1774L449.555 -49.9912L461.385 -48.7141L474.309 -46.651L480.274 -45.5703L484.25 -45.1774L486.437 -43.5073L487.829 -40.8547L492.203 -37.6128L502.045 -37.0233L509.7 -38.104L518.449 -38.3987L522.922 -40.953L528.887 -46.651L532.168 -50.9736L534.256 -57.0646L533.063 -65.6117L531.074 -73.078L530.08 -79.6602L532.367 -83.8846L534.852 -87.1266L537.437 -89.3861L548.87 -90.958L576.01 -106.284L585.951 -112.669L591.916 -117.582L599.869 -126.914L607.822 -139.686L612.793 -154.913L616.77 -166.702L619.255 -174.562L624.723 -178.491L630.191 -181.93L636.454 -187.431M-78.734 1142.57L-81.7164 1141.98L-87.5819 1141.88M-78.734 1142.57L-71.2779 1134.8L-74.658 1131.46L-77.9387 1129.01L-82.0147 1127.63L-85.9913 1127.24L-89.769 1127.73L-91.3597 1129.89L-95.038 1131.37L-95.8333 1132.45L-94.5409 1141.19L-87.5819 1141.88M-78.734 1142.57L-71.0794 1134.71L-74.4595 1131.37L-77.7402 1128.91L-81.8162 1127.53L-85.7928 1127.14L-89.5705 1127.73L-91.2606 1129.79L-94.9389 1131.37L-95.7342 1132.45L-94.4418 1141.19L-91.5588 1141.48L-87.5819 1141.88M-61.0382 1129.5L-59.547 1133.13M-61.0382 1129.5L-62.5295 1126.75L-64.9154 1129.99M-61.0382 1129.5L-62.4299 1126.75L-64.0206 1128.91L-64.9154 1129.99M-59.547 1133.13L-59.2488 1135L-65.6113 1132.05M-59.547 1133.13L-59.3481 1135L-62.4299 1133.53L-65.6113 1132.05M-65.6113 1132.05L-64.9154 1129.99M1216.94 904.722L1223.2 908.553L1220.02 911.697M1216.94 904.722L1211.27 907.374M1216.94 904.722L1223.3 908.553L1220.02 911.697M1220.02 911.697L1213.85 910.42L1211.27 907.374M1220.02 911.697L1213.85 910.518L1211.27 907.374M631.682 -187.923L625.916 -183.895L616.471 -178.983L612.495 -170.632L609.015 -157.369L605.039 -143.616L596.588 -129.371L585.653 -118.073L575.214 -110.508L548.074 -95.1824L539.624 -93.0211L533.858 -92.2352L531.373 -88.9932L526.998 -78.7761L529.682 -66.5941L530.776 -59.0295L529.384 -55.0016L526.203 -49.7948L522.823 -46.4545L516.56 -42.7214L508.805 -42.6231L501.186 -41.5474M631.682 -187.923L626.015 -183.895L616.571 -178.983L612.594 -170.632L609.115 -157.369L605.138 -143.616L596.688 -129.371L585.752 -118.073L575.314 -110.508L548.174 -95.1824L539.723 -93.0211L533.957 -92.2352L531.472 -88.9932L527.098 -78.7761L529.782 -66.5941L530.875 -59.0295L529.484 -55.0016L526.302 -49.7948L522.922 -46.4545L516.659 -42.7214L508.905 -42.6231L501.25 -41.5425L501.186 -41.5474M631.682 -187.923H157.375L159.065 -184.681L165.825 -178L163.539 -173.776L164.931 -164.345L165.726 -158.647L172.685 -150.984L175.369 -145.58L170.597 -144.893L168.41 -139.784L169.404 -133.202L175.767 -129.272L176.96 -120.725L180.539 -109.624L189.486 -101.273L198.732 -97.7367L212.65 -95.8701L220.006 -92.0387L226.369 -88.109L236.211 -87.5196L240.585 -84.2776L245.755 -82.1163L254.901 -86.2424L268.322 -88.109L279.257 -86.7336L291.287 -84.5723L300.333 -82.9022L305.105 -83.5899L313.953 -82.9022L319.719 -77.0077L325.286 -71.9974L333.239 -64.4328L340.099 -57.6541L344.076 -50.4825L348.251 -41.4442L354.116 -34.5673L362.268 -31.8165L370.917 -32.9954L390.005 -35.6479L395.771 -36.4339L404.818 -41.5425L414.66 -47.7317M501.186 -41.5474L501.15 -41.5425L492.303 -42.2301L491.11 -43.9985L489.618 -47.6334L484.548 -48.8124L476.496 -50.5807L461.584 -52.349L448.712 -54.4038M501.186 -41.5474L492.402 -42.2301L491.209 -43.9985L489.718 -47.6334L484.648 -48.8124L476.595 -50.5807L461.683 -52.349L448.759 -54.4121L448.712 -54.4038M448.712 -54.4038L448.66 -54.4121L421.122 -49.5983L414.66 -47.7317M448.712 -54.4038L421.221 -49.5983L414.66 -47.7317M459.397 457.624L463.374 461.455L468.245 462.536L473.514 461.75L477.192 459.097L482.163 453.203L500.555 429.232L551.057 362.722L553.642 360.266L558.215 358.301L564.677 356.729L570.344 356.533L578.098 358.301L586.051 361.15L592.016 363.999L605.437 374.118L616.77 382.272L622.735 385.121L630.291 387.872L639.934 390.132L654.15 392.391L663.793 390.623L674.63 388.069L687.653 382.469L698.787 376.476L705.349 372.448L710.021 367.929L713.302 362.624L715.986 355.649L717.378 349.951V345.432L716.582 338.162L714.892 332.267L713.998 327.552L711.711 321.952L708.927 318.808L704.354 314.191L700.08 310.654L696.103 308.198L689.641 305.153L682.384 303.482L673.238 301.321L658.326 299.946L645.799 299.062L630.191 297.981L616.671 296.9L604.045 296.507L592.016 293.265L578.794 290.711L571.537 289.041H562.888L556.326 288.55L549.467 289.532L541.215 294.149L531.87 296.998L522.525 301.911L515.864 306.43L507.911 316.156L504.332 320.38L496.777 330.695L491.309 338.555L484.251 347.003L480.871 352.8L470.432 366.554L464.268 375.199L437.526 410.369L435.14 413.906L433.052 416.46L431.959 418.72L431.462 421.078L431.959 423.239L434.742 426.383L459.397 457.624ZM459.397 457.624L459.198 457.427M385.731 766.692L383.842 764.236L380.859 761.485L378.573 760.503L373.701 759.324L371.117 759.717L364.953 759.815L357.199 758.047L354.514 756.475L351.234 755.198L347.058 753.233L344.772 752.152L341.988 751.072L338.21 749.598L332.444 748.321L328.567 749.402L324.491 751.563L321.509 755.885L320.713 759.226L319.421 768.952L319.918 775.141L319.222 782.607L319.322 788.698L319.421 792.726L320.813 797.54L324.591 800.978L329.561 803.631L334.631 805.792L341.392 807.364L345.269 808.248L348.649 809.034L354.117 807.757L359.982 806.578L364.356 803.14L370.818 797.54L374.696 793.905L379.666 788.011L383.245 783.786L384.935 781.134L386.924 772.488L386.725 768.952L385.731 766.692ZM1275.69 440.923L1271.91 437.582L1271.22 431.688L1276.88 429.035L1281.06 433.751L1275.69 440.923ZM1282.45 420.685L1283.15 404.868L1290.5 400.643L1295.07 409.878L1286.43 423.436L1282.45 420.685ZM954.978 458.803L966.808 451.631L970.487 452.417L972.674 457.329L971.083 462.044L961.639 470.297L952.592 470.395L954.978 458.803ZM724.336 769.345L725.728 756.278L730.699 726.118L739.447 708.828L761.716 694.877L766.488 702.835L766.886 769.148L760.921 797.835L723.044 853.243L719.366 852.457L724.336 769.345ZM848.704 -131.925L843.336 -106.284L845.821 -102.649L856.458 -107.463L874.154 -105.793L889.464 -117.385L897.616 -119.546L900.797 -113.161L899.803 -108.249L898.908 -107.168L894.136 -115.125L877.136 -101.372L853.078 -103.729L851.786 -103.336L852.183 -96.2631L871.072 -96.8525L872.166 -95.9683L876.043 -90.1721L940.066 -134.479L993.849 -187.628H858.248L854.371 -162.674L848.704 -131.925ZM876.937 -88.0108L875.049 -88.4037L803.768 -39.7741L798.599 -27.3956L799.295 -24.7431L805.856 -18.9468L812.815 0.308552L812.218 3.35407L815.897 10.4275L822.16 26.9321L831.107 49.1347L832.897 55.9134L834.885 77.3301L833.095 89.0208L833.394 96.6837L824.446 136.865L819.277 193.157L824.248 234.32L833.692 247.681L859.838 267.624L892.446 284.424L914.019 301.518L920.183 302.795L933.802 292.872L934.797 294.346L939.668 289.63L922.966 205.339L915.411 182.842L923.066 179.894L930.522 146.983L954.481 112.304L957.364 23.7883L956.867 19.8587L956.071 14.5536L941.457 13.4729L908.452 4.9259L884.493 -10.1051L874.651 -21.6976L858.546 -24.9396L853.376 -37.4163L858.347 -39.5776L864.511 -35.1567L895.926 -24.9396L957.165 -12.5611L991.562 -17.0802L1035.3 -29.2622L1058.27 -50.0895L1071.59 -70.9167L1075.87 -91.7439L1074.18 -108.642L1063.04 -126.227L1048.23 -163.657L1051.21 -165.622L1056.68 -160.71L1075.37 -126.325L1078.25 -127.7L1078.65 -135.854L1075.67 -161.889L1079.64 -162.38L1087.8 -139.686L1098.23 -143.321L1099.23 -173.088L1104.6 -173.874L1107.58 -169.453L1107.08 -160.611L1113.84 -159.236L1113.44 -157.369L1118.42 -156.387L1125.57 -150.492L1131.44 -153.734L1142.08 -145.875L1168.32 -113.848L1279.07 -100.979L1278.07 -96.0666L1169.02 -107.954L1160.57 -110.901L1130.54 -139.882L1124.78 -149.314L1116.82 -154.717L1115.43 -151.18L1106.88 -150.394L1107.58 -141.356L1104.1 -136.935L1099.82 -140.963L1087.3 -136.444L1090.18 -119.35L1090.48 -105.301L1088.99 -79.4637L1078.55 -47.8299L1063.04 -19.7327L1049.92 -9.0244L1014.83 -1.45981L979.931 14.4554L958.159 13.8659L958.358 18.9745L961.639 24.7708L968.995 98.2556L1013.23 83.6175L1014.83 88.4314L982.416 114.367L971.679 125.567L952.592 145.903L940.463 176.554V204.553L948.615 252.102L941.259 290.711L936.387 295.427L938.674 299.749L929.627 309.377V315.763L955.375 350.246L969.393 388.069L970.983 411.352L966.41 433.358L973.866 434.832L991.264 412.924L1007.87 357.712L1015.52 333.152L1054.69 278.038L1087.2 254.656L1105.99 253.969L1115.53 266.74L1123.58 268.41L1147.05 257.898L1174.09 251.906L1218.82 247.583L1263.36 256.621L1288.81 273.912L1297.26 282.655L1314.56 310.949L1328.58 348.772L1331.36 378.638L1319.73 422.159L1297.56 469.904L1296.76 501.538L1302.73 522.463L1322.41 558.322L1321.52 562.644L1314.06 561.171L1289.31 544.077L1283.44 553.704L1290 590.643L1305.12 607.737L1329.47 614.614L1368.24 604.593L1400.06 615.4V-187.628H996.036L941.259 -133.497L876.937 -88.0108ZM1277.48 1016.91L1246.46 1001.69L1196.46 962.881L1174.98 929.872L1172.3 914.644L1172.79 868.864L1186.51 818.171L1203.22 793.512L1205.1 784.376L1175.18 720.42L1145.16 672.282L1133.13 671.103L1124.18 673.755L1115.73 680.338L1084.61 690.555L1054.99 706.175L1039.48 715.803L931.615 804.122L912.428 825.048L887.972 843.615L866.797 855.896L867.493 858.548L842.043 875.642L832.4 890.87L818.879 900.203L816.394 906.097L810.23 904.82L806.552 897.747L789.552 898.827L786.768 890.575L787.961 885.073L804.066 878.786L824.148 862.478L836.277 859.825L847.013 851.77L894.931 822.592L949.609 776.32L972.872 751.072L1049.02 694.485L1119.21 663.44L1132.73 660.493L1154.1 659.707L1161.76 666.387L1200.13 751.858L1214.35 764.236L1223.2 780.643L1228.17 781.625L1231.75 776.615L1242.78 776.32L1258.89 779.562L1272.61 784.867L1290.5 788.502L1343.09 758.44L1400.45 743.213V635.245L1385.14 627.484L1362.88 622.965C1354.62 624.438 1337.23 627.68 1334.05 628.564C1330.76 629.448 1322.51 628.171 1318.83 627.385C1312.47 625.028 1299.35 620.116 1297.96 619.33C1296.57 618.544 1289.21 610.979 1285.63 607.246L1273.5 588.187L1269.82 577.872L1269.43 564.413L1269.33 537.003L1266.44 516.667L1263.76 482.97L1263.16 448.487L1268.13 424.615L1282.25 393.767L1292.19 379.816L1296.96 369.304L1298.55 349.263L1295.47 330.204L1287.22 310.752L1275.79 294.444C1271.41 290.613 1262.37 282.655 1260.98 281.869C1259.58 281.083 1247.26 276.761 1241.19 274.698L1214.55 269.294L1194.47 276.073L1179.65 285.209L1169.81 298.472C1146.15 299.651 1098.33 302.009 1096.25 302.009C1094.16 302.107 1084.51 304.563 1080.04 305.742L1053.6 321.363L1042.86 335.706L1031.63 362.035C1030.23 371.073 1027.35 390.033 1027.65 393.668C1027.95 397.303 1032.72 406.342 1035.11 410.468L1046.14 431.786L1048.82 443.772C1044.95 451.042 1036.99 466.171 1036 468.529C1035.01 470.886 1029.84 480.612 1027.35 485.23C1015.12 497.805 989.872 523.642 987.287 526.196C984.007 529.34 955.773 547.81 952.89 549.185C950.007 550.56 924.159 557.339 919.089 556.946C914.019 556.553 884.791 560.778 882.007 561.563C879.82 562.153 865.803 567.163 859.043 569.619L838.961 585.927L823.054 603.709L811.821 657.447C807.745 670.022 799.394 695.663 798.897 698.12C798.4 700.576 799.692 708.73 800.487 712.463L808.142 722.287L802.177 726.217L815.897 759.521L800.289 803.533L781.4 838.605L772.552 847.054L770.663 862.576L746.704 897.157L752.868 898.434L773.049 891.066L780.505 892.54L781.3 904.132L743.523 930.854L737.956 957.772C741.137 966.319 747.301 984.396 746.307 988.718C745.412 993.139 744.219 998.739 743.821 1000.9L734.079 1023.1L725.032 1048.06C713.5 1071.44 689.839 1120.66 687.254 1130.87C684.67 1141.09 683.576 1213.99 683.377 1249.16L674.43 1292.48H1400.45V1047.76L1354.13 1034.7L1277.48 1016.91ZM488.426 691.046L481.964 688L473.315 686.036L463.771 685.348L458.602 687.706L454.327 692.716L454.426 700.87L455.917 711.775L458.9 723.073L464.964 734.076L469.04 742.525L471.625 749.205L474.11 751.268L476.098 751.759L479.777 751.072L481.367 748.91L482.362 744.588L483.654 739.381L484.748 734.567L486.04 729.36L489.221 721.992L492.005 717.08L494.391 711.087L496.677 701.558L492.999 695.663L488.426 691.046ZM1272.91 905.213L1276.98 904.132L1288.51 922.995L1288.12 924.861L1281.85 924.174L1272.61 909.536L1272.91 905.213ZM1202.82 854.717L1203.02 847.742L1208.09 844.991L1208.68 845.089L1202.82 854.717ZM1251.33 828.879L1233.74 839.293L1229.36 851.18L1224.29 853.931L1222.4 841.454L1228.07 833.005L1250.24 822.199L1252.53 826.521L1251.33 828.879ZM1265.25 811.392L1262.86 813.455L1251.83 810.606L1246.16 800.585L1249.54 796.852L1260.58 802.943L1259.68 807.266L1265.35 810.999L1265.25 811.392ZM1288.12 803.926L1272.41 805.203L1271.81 801.863L1281.85 796.852L1293.48 796.656L1295.57 799.014L1288.12 803.926ZM1385.44 906.392L1378.78 907.571L1372.52 912.679L1366.45 907.669L1343.69 905.606L1309.79 904.427L1303.62 906.392L1315.45 917.69L1326.09 922.405L1332.65 937.043L1340.51 939.892L1354.52 959.344L1353.63 963.569L1314.56 940.384L1307.2 938.91L1296.27 935.471L1295.57 939.106L1301.24 945.983L1303.62 946.474L1323.21 970.151L1324.2 974.866L1312.77 968.088L1283.64 937.338L1272.91 936.454L1271.02 932.917L1263.46 938.321L1251.53 930.854L1241.59 928.791L1238.21 920.539L1220.12 914.251L1214.25 917.592L1227.67 939.991L1242.09 957.576L1273.3 977.912L1285.93 982.333L1320.13 985.477L1356.51 980.761L1371.13 975.456L1372.82 976.438L1400.55 967.302V905.999L1384.95 908.848L1385.44 906.392ZM1376.6 1033.22L1400.55 1034.89V1021.33L1374.81 1029L1376.6 1033.22ZM1288.12 924.861L1288.51 923.093L1276.98 904.132L1272.9 905.213L1272.61 909.634L1281.85 924.272L1288.12 924.861ZM1271.12 431.786L1271.91 437.681L1275.69 440.923L1281.06 433.751L1276.88 429.134L1271.12 431.786ZM1260.68 802.747L1249.64 796.754L1246.26 800.487L1251.93 810.606L1262.96 813.455L1265.25 811.392L1265.45 810.803L1259.78 807.07L1260.68 802.747ZM1227.97 833.104L1222.3 841.552L1224.29 854.029L1229.36 851.18L1233.74 839.391L1251.33 828.879L1252.53 826.62L1250.14 822.297L1227.97 833.104ZM971.083 462.045L972.673 457.329L970.486 452.417L966.808 451.631L954.978 458.803L952.592 470.395H961.638L971.083 462.045ZM761.02 797.835L766.985 769.05L766.488 702.737L761.716 694.779L739.447 708.73L730.798 726.118L725.827 756.279L724.336 769.345L719.365 852.457L723.143 853.145L761.02 797.835ZM627.01 1180.09L630.291 1139.32L627.606 1112.01L636.951 1107.49L637.25 1096.69L657.232 1056.21L669.46 1016.03L679.898 984.396L680.594 971.821L689.343 892.147L694.811 881.144L711.711 861.692L714.097 818.859L713.898 804.22L724.535 724.841L736.565 704.309L761.319 687.706L769.868 658.921L777.126 642.515L790.149 613.926L804.664 587.598L816.494 570.896L820.868 559.009L875.148 505.664L893.739 493.482L898.511 486.114L910.938 472.753L928.037 443.084L933.207 418.032L930.125 379.816L919.885 351.621L895.926 321.264L852.383 288.844L844.628 282.852L806.95 265.659L786.968 243.751L782.693 230.194L783.289 227.149L784.383 206.321L784.781 191.782L786.073 172.919V138.535L783.588 134.9L782.693 111.125L781.202 87.2524L777.623 67.4076L772.752 53.6537L787.067 -15.4102L791.243 -10.6946L797.506 -10.0069L797.904 -11.8735L794.126 -27.8869L803.272 -56.5735L812.816 -62.2715L817.687 -54.9034L825.839 -60.2084L830.014 -67.6748L843.634 -71.3097L870.078 -90.1721L868.687 -93.0212L852.084 -90.6633L845.523 -96.4596L844.529 -101.077L840.95 -105.596L845.921 -132.613L851.687 -163.264L855.862 -187.726H636.156L629.893 -182.225L624.425 -178.786L618.957 -174.857L616.472 -166.997L612.495 -155.208L607.525 -139.981L599.572 -127.209L591.618 -117.876L585.653 -112.964L575.712 -106.579L548.572 -91.2528L537.139 -89.6809L534.554 -87.4214L532.069 -84.1794L529.782 -79.955L530.777 -73.3728L532.765 -65.9064L533.958 -57.3594L531.87 -51.2684L528.59 -46.9458L522.625 -41.2478L518.151 -38.6935L509.403 -38.3988L501.748 -37.3181L491.906 -37.9075L487.531 -41.1495L486.14 -43.802L483.952 -45.4722L479.976 -45.8651L474.011 -46.9458L461.087 -49.0089L449.257 -50.286L421.719 -45.4722L415.257 -42.6232L405.316 -37.4163L396.169 -33.2902L390.403 -32.5042L371.316 -29.8517L362.766 -28.6728L357.895 -28.9676L353.62 -31.2271L348.152 -35.255L344.176 -42.4267L339.006 -51.3667L336.521 -54.9034L330.755 -60.7979L322.702 -69.3449L313.357 -79.562L310.375 -80.1515L306.597 -79.6603L301.726 -79.955L295.86 -80.0532L291.884 -80.4462L287.808 -81.8216L283.831 -82.2146L279.755 -83.59L276.773 -84.1794L273.89 -83.7864L269.018 -84.0812L266.036 -84.6706L260.27 -83.8847L254.703 -82.1163L249.235 -79.4638L246.352 -79.0708L244.562 -77.8919L243.171 -73.864L239.592 -71.408L237.902 -69.2467L238.399 -65.5135L239.79 -62.8609L244.463 -57.7524L246.948 -54.2157L248.937 -46.7493L249.732 -41.0513L251.521 -35.5497L253.311 -23.2695L254.007 -11.7753L254.106 -4.11238L254.901 1.58562L252.814 7.67663L251.422 11.7045L252.516 19.2691L251.124 23.297L248.937 28.4056L242.773 33.1212L233.03 40.2928L222.393 47.5628L214.44 53.4573L207.083 56.4045L202.609 58.9588L198.931 60.4324L195.153 60.9236L186.206 57.6816L178.75 52.9661L172.487 50.0188L169.902 52.2783L166.323 54.7344L166.621 56.601L177.656 65.6393L170.996 73.3021L168.411 75.5616L168.809 78.4107L172.487 83.7157L173.978 87.3506L174.773 93.0487L172.288 96.2906L170.896 100.319L163.241 101.399L155.785 96.6836L149.124 90.8873L145.943 89.4137L144.054 89.7085L140.873 88.2348L131.031 80.9649L123.277 74.3827L113.832 69.9618L107.669 67.8988L100.411 65.0498L96.3354 63.6744L93.1541 62.2008L87.2886 62.1025L79.6337 63.1832L70.0899 64.5586L62.0374 62.7902L51.7977 59.45L40.4644 55.2256L30.523 53.752L24.3593 51.6889L16.2073 48.9382L12.9266 46.4821L8.65178 44.2225L5.37111 41.7665L1.29511 40.3911L-3.47678 41.0788L-8.34811 40.7841L-13.7165 43.5348L-17.7925 42.1595L-23.7574 41.0788L-26.6404 41.4718L-28.4298 42.6507L-30.9152 45.8926L-32.4064 49.0364L-31.4123 55.6186L-33.997 57.8781L-38.7689 58.5658L-43.4414 60.1377L-48.2133 60.8254L-51.0963 61.2184L-53.7805 62.5937L-58.5524 63.2814L-62.6284 61.906L-65.5114 62.299L-66.2073 64.3621L-65.7103 68.0953L-60.2425 72.1232L-50.4004 79.3931L-53.6811 83.7157L-65.412 76.6423L-70.5816 81.2596L-58.8507 95.0135L-57.3594 98.6484L-56.8624 102.382L-64.219 105.329L-67.9968 105.82L-71.9734 105.427L-74.6576 106.802L-82.8096 110.83L-86.3885 113.286L-86.985 116.234L-88.0785 122.128L-86.2891 127.63L-83.4061 134.015L-81.2189 149.145L-80.0259 150.913L-76.2482 157.102L-73.6634 161.523L-61.1372 174.196L-67.3009 185.691L-71.6751 189.227L-79.0318 192.175L-78.6341 195.024L-77.9383 199.739L-76.3476 204.357L-72.7687 208.679L-62.9267 215.949L-62.1313 221.647L-50.4004 222.728L-50.0028 225.577L-63.8214 224.594L-63.4237 227.443L-61.1372 229.998L-60.6401 233.731L-59.2483 236.383L-60.0437 237.464L-64.7161 239.036L-64.6167 240.018L-65.2132 242.966L-62.9267 245.52L-60.839 246.208L-61.2366 250.137L-67.8974 251.12L-76.5464 252.298L-81.6166 251.12L-87.5814 250.039L-97.7217 247.583L-100.605 247.976L-99.9088 252.691L-98.9147 259.274L-97.3241 263.891L-93.944 267.231L-89.6692 269.491L-86.7861 269.098L-84.4996 271.652L-85.9908 274.796L-88.2774 279.02L-89.0727 286.88L-89.7686 288.943L-89.4703 290.809L-102.891 292.676L-101.897 299.258L-95.2364 305.054L-96.0317 306.135L-101.599 307.903L-100.505 315.468L-96.1311 318.71L-86.4879 325.096L-79.0318 329.811L-69.7863 333.348L-60.7395 335.018L-51.494 338.555L-44.2367 341.404L-40.9561 343.86L-44.9326 343.467H-51.7922L-55.8682 342.091L-58.7512 342.484L-58.2542 346.218L-55.9676 348.772L-50.0028 349.853L-37.8742 352.996L-39.7631 359.971L-57.8565 355.747L-60.143 359.971L-54.5759 364.982L-49.5057 366.161L-34.1959 370.778L-35.2894 376.673L-39.266 376.28L-42.149 376.673L-42.8449 378.736L-44.2367 382.764L-46.1256 383.058L-57.5583 377.95L-59.4472 378.244L-60.0437 381.192L-59.5466 384.925L-56.1665 388.265L-45.8274 392.588L-28.231 399.759L-19.0849 402.314L-12.9212 404.377L-10.7341 406.047L-10.3364 408.896L-5.86275 413.12L-3.27797 417.541L5.07284 421.176L16.0084 422.551L24.061 424.32L28.137 425.695L41.9556 433.358L42.4527 443.87L43.1486 448.586L42.751 452.515L39.3708 455.855L37.8796 458.999L35.3943 462.241L38.2773 475.307L36.0902 480.416L33.8037 484.64L29.7277 490.043L26.1487 492.499L27.9382 498.001L27.5405 501.931L23.9616 504.387L19.5874 507.923L17.7979 509.102L18.7921 516.569L24.2599 520.597L35.1955 528.751L40.4644 531.894L42.751 534.449L43.1486 537.298L42.751 541.227L34.7978 547.122L30.0259 547.81L25.9499 546.434L22.9674 545.845L21.2774 548.006L20.6809 550.953L23.9616 553.409L29.4294 557.437L41.9556 563.332L59.1544 560.974L68.7975 567.36L66.7098 573.451L54.6807 577.97L39.7685 576.201L37.2832 579.443L37.7802 583.177L41.1603 586.517L57.0667 602.629L66.7098 602.235L82.0197 613.632L84.3062 622.965L85.698 632.396L84.9027 640.255L82.3179 649.293L77.2478 661.573L76.0548 666.584L75.6571 670.513L66.8093 676.604L66.1134 678.668L67.704 683.285L78.8384 693.306L80.2302 695.958L81.0255 701.656L73.6689 704.603L82.2185 716.884L83.4115 718.652L82.0197 722.68L79.4349 724.939L78.8384 727.887L79.3355 731.62L81.5226 733.29L81.8208 735.157L82.2185 738.006L80.6279 740.167L78.9378 742.328L78.2419 744.391L78.739 748.124L80.1308 750.777L81.3238 752.545L82.7156 755.296L83.2126 759.029L83.6103 761.878L83.9085 763.745L83.2126 765.808L79.4349 766.299L76.5519 766.692L71.3823 764.531L61.9379 760.11L55.7742 758.047L48.517 755.198L44.441 753.822L36.8855 754.805L35.096 755.984L34.4995 758.931L34.9966 762.664L38.7744 768.853L43.8445 770.032L50.1076 772.98L58.6573 777.499L62.2362 781.821L63.628 784.572L62.8327 785.653L59.9497 786.046L57.6631 783.492L47.5228 781.035L40.4644 779.169L35.3943 777.99L31.6165 778.579L30.9206 780.643L31.3183 783.492L32.5113 785.26L35.7919 787.716L41.558 793.61L44.0433 797.147L48.3182 799.407L52.3941 800.782L56.7684 804.024L54.283 807.266L52.8912 811.294L51.1018 812.473L44.9381 817.188L40.9615 823.574L36.8855 828.977L34.4001 832.219L30.7218 833.693L16.3067 835.658L11.4354 835.363L7.65762 835.854L7.25997 839.784L9.24827 854.029L12.3301 862.281L15.909 866.604L21.6751 872.499L25.4528 878.688L29.9265 882.912L32.4118 886.449L43.8445 884.877L49.0141 887.038L51.1018 901.185L51.4 903.052L53.6866 905.606L56.9672 908.062L58.359 910.715L55.1778 915.921L52.9906 921.03L52.2947 922.995L56.8678 955.12L56.7684 960.916L57.9614 969.365L56.8678 975.259L49.4117 984.985L46.131 989.308L42.5521 991.764L43.9439 994.515L48.7158 993.827L54.8795 995.89L61.5403 995.006L70.2888 987.933L75.6571 984.298L77.9437 980.171L79.8325 973.196L81.3238 970.151L83.6103 966.025L86.2945 964.649L91.0664 963.962L94.8441 963.47L98.9201 964.846L102.201 967.302L105.979 966.811L108.663 965.435L112.242 962.979L116.019 962.488L123.376 966.319L129.54 968.382L135.902 972.312L141.37 976.34L145.744 979.582L152.902 988.227L157.575 993.336L159.861 995.89L162.347 999.427L164.633 1001.98L166.82 1003.55L168.013 1005.32L170.896 1004.93L172.785 1004.63L175.37 1002.37L177.557 997.266L180.539 991.076L184.118 988.62L190.381 984.887L195.153 984.199L201.715 982.333L207.282 980.565L210.662 977.224L213.147 973.982L217.422 969.561L219.908 966.319L223.685 965.73L228.358 964.158L235.913 963.176L238.1 964.846L241.381 967.302L243.966 971.723L246.65 977.126L251.72 985.084L254.305 989.504L256.293 1002.67L256.989 1007.38L255.796 1012.39L255.498 1017.21L255.896 1020.06L258.381 1023.59L261.562 1025.07L262.954 1027.82L266.334 1031.16L270.609 1033.42L273.989 1036.76L277.27 1039.21L279.755 1042.75L280.55 1048.45L281.545 1055.03L284.03 1058.57L287.41 1061.91L288.802 1064.66L291.287 1068.2L294.866 1072.52L300.732 1072.62L308.685 1073.4L314.55 1073.6L317.533 1074.09L322.603 1075.27L325.784 1076.74L330.059 1079L333.339 1081.46L337.316 1081.85L340.299 1082.44L346.065 1081.66L349.047 1082.15H355.907L360.181 1084.41L363.363 1085.88L368.83 1089.91L379.368 1096.19L392.491 1105.92L399.947 1110.64L402.83 1110.24L407.503 1108.67L411.181 1107.2L414.959 1106.71L419.731 1106.02L426.391 1105.13L430.169 1104.64L435.239 1105.82L442.695 1110.54L447.169 1114.76L455.122 1122.33L466.257 1132.35L468.543 1134.9L471.426 1141.19L472.122 1145.91L473.912 1151.41L474.309 1154.26L471.029 1158.58L468.146 1158.97L460.491 1160.05L455.619 1159.76L451.842 1160.25L449.356 1163.49L446.771 1165.75L446.473 1170.56L447.467 1177.15L448.263 1182.84L448.959 1187.56L450.549 1192.47L451.941 1198.37V1210.16L450.549 1215.07L448.362 1219.49L445.081 1221.94L442.099 1223.42H438.122L435.14 1222.93L432.158 1220.96L430.169 1221.94L428.678 1224.4L430.169 1229.8L432.158 1236.19L434.146 1247.49L435.14 1254.36V1265.17L434.146 1269.59L431.66 1274.01L429.175 1277.94L428.678 1282.36L429.175 1285.31L430.169 1287.77L431.66 1290.22L433.748 1293.07H616.671L624.326 1251.81L627.01 1180.09ZM559.408 906.687L556.326 913.072L547.18 921.521L537.437 930.363L531.274 932.524L508.508 935.864L475.602 930.265L459.099 922.405L453.631 917.592L448.064 913.269L438.818 909.143L427.187 904.427L412.97 897.648L407.801 893.424L405.316 888.807L400.941 870.632L399.152 858.647L400.146 854.324L393.187 838.605L381.058 833.791L371.912 833.693L361.176 838.31L350.836 840.963L341.193 840.766L330.059 838.212L324.293 836.837L316.837 831.63L306.895 821.806L300.433 812.276L294.071 793.709L292.679 786.832L295.463 775.436L299.638 770.818L307.591 763.057L312.661 756.672L313.457 753.331L311.965 748.91L310.176 745.472L305.802 744.49L284.626 747.633L279.656 749.009L272.2 748.321L269.515 746.651L267.428 742.623L267.328 736.532L267.825 730.048L269.515 722.876L272.2 715.901L274.586 712.463L275.58 708.14L277.369 700.477L277.27 694.386L278.264 686.036L283.632 663.538L321.012 619.723L336.322 613.14L364.357 609.014L380.164 607.148L405.813 557.044L406.707 553.213L405.912 549.873L400.444 538.477L371.713 487.391L359.883 468.529L357.398 463.911L354.912 461.357L340.299 449.961L322.503 436.796L315.942 432.277L310.474 427.464L266.931 400.251L263.352 395.928L231.937 338.162L228.557 337.376L222.393 335.411L217.621 331.776L208.375 321.068L204.001 313.503L194.955 304.367L184.218 291.792L173.68 280.297L147.335 260.06L144.154 258.291L131.926 253.969L123.973 251.12L112.838 248.565L106.177 244.537L102.996 240.804L100.61 235.696L98.6219 229.212L98.4231 225.675L97.7272 224.496H95.6394L94.0488 224.594L92.2594 225.675L91.1658 227.935L89.6746 232.159L88.7799 233.927L86.7916 235.99L84.6044 236.482L83.1132 236.187L80.7273 235.597L80.0314 234.419L80.1308 231.962L79.932 228.426L79.6337 225.38L78.739 222.629L74.9612 216.735L73.47 214.377L70.9847 211.823L71.78 208.483L72.6747 204.651L74.7624 202.097L76.5519 198.953L78.0431 196.792L78.5402 194.925L77.9437 193.059L78.8384 189.424L79.7331 187.655L82.0197 184.61L84.1074 182.056L86.0956 179.993L87.4875 178.322L89.4758 176.259L91.0664 176.161L94.4465 176.947C94.7448 177.144 95.3412 177.831 95.54 178.715C95.8383 179.796 98.6219 182.94 99.0195 183.529C99.3178 184.021 100.511 186.771 101.008 188.048L104.587 192.371L107.172 194.434L109.856 198.069L113.236 200.918L117.709 203.472L122.68 206.125L125.364 205.732L127.75 206.321L131.23 206.616L135.505 208.09L136.499 210.349L137.195 214.082L138.089 216.833L137.095 220.566L138.587 222.924L139.879 226.264L142.762 231.471L144.75 233.927L149.025 237.464L151.61 241.59L154.195 243.653L156.581 246.699L159.861 249.941L162.943 252.2L167.118 254.165L170.697 256.523L173.382 258.193L179.148 262.024L189.089 271.456L194.457 276.761L199.13 280.887L203.405 284.424L209.767 289.925L221.001 300.339L225.972 302.991L231.241 306.724L234.621 309.573L238.399 314.977L242.673 320.478L246.849 324.506L252.217 331.776L257.188 336.492L261.264 340.913L265.042 344.351L268.223 348.084L272.398 352.112L276.077 358.007L282.738 366.652L291.585 378.834L301.129 390.132L308.585 399.465L310.673 401.429L312.363 402.805L317.93 407.127L325.287 412.825L329.661 415.871L335.228 420.194L339.404 424.221L342.983 426.579L345.766 429.723L347.258 432.081L348.053 435.323L349.047 439.645L352.029 442.298C352.626 442.789 353.819 443.772 354.217 443.772C354.614 443.87 357.895 444.656 359.585 445.049L363.164 444.852L366.445 444.066L370.421 442.494L374.994 440.53L380.363 437.189L387.123 434.733L394.181 432.867L398.456 431.884L402.631 431.393L408.397 432.769L413.965 435.028L417.146 436.796L422.713 441.119L428.28 447.996L436.83 457.034L443.69 464.697L449.058 471.967L452.836 481.889L455.619 491.615L456.514 502.913L455.122 515.193L451.941 526.589L447.766 535.726L440.508 544.666L435.339 551.543L428.777 557.634L421.122 561.956L419.432 564.609L417.444 568.735L413.07 576.3L394.181 610.783C393.883 612.846 393.187 617.463 393.386 618.642C393.485 619.919 395.672 624.045 396.766 626.01L401.041 631.511L407.503 638.585L415.853 646.543L424.105 652.535L432.853 656.563L437.526 660.689L442.397 663.833L445.38 666.486L448.76 667.272L455.222 665.7L462.877 663.44L467.251 662.458L472.818 662.752L477.391 662.851L484.151 666.486L488.525 669.531L493.894 674.836L499.063 679.061L504.929 684.464L508.309 687.313L510.098 692.814L510.297 698.414L508.707 705.095L505.128 719.929L508.806 723.76L512.186 729.066L517.555 730.244L521.929 731.227L526.402 733.781L527.894 738.202L531.572 744.097L534.057 746.651L539.525 749.402L542.905 752.251L547.081 754.215L548.075 758.44L549.367 763.745L546.782 774.355L544.695 776.909L538.829 782.116L532.367 787.716L525.011 795.084L519.742 799.898L516.958 805.301L514.771 814.339L513.479 819.644L511.093 829.665L509.204 837.819L508.508 847.25L508.408 854.324L511.49 860.611L513.976 865.229L516.362 868.274L522.625 869.748L542.806 872.892L550.759 878.295L558.414 887.137L559.408 897.943V906.687ZM620.15 684.66L623.431 685.544L627.805 686.527L632.677 687.608L636.255 689.965L637.647 692.814L638.84 696.646L642.519 700.477L645.899 703.326L651.665 704.702L654.548 703.326L655.741 702.54L656.238 700.674L656.735 698.709L654.647 696.744L650.372 693.207L645.6 687.608L640.232 682.302L636.355 679.355L631.782 677.292L626.016 675.917L618.361 673.657L612.297 671.201L608.221 666.78L606.431 663.342L603.349 657.054L600.466 651.848L596.788 648.016L593.209 643.693L591.817 638.781L591.221 634.655L591.817 632.297L595.893 632.199L600.267 633.182L611.8 631.806L619.653 631.119L625.817 631.02L628.7 629.645L634.267 625.421L637.945 622.768L639.934 618.642L640.928 614.319L642.022 609.505L640.53 607.148L638.741 601.646L636.454 596.046L635.261 590.25L632.378 585.043L628.302 580.622L622.437 575.219L614.583 571.879L609.215 570.602L600.168 570.012L590.425 570.307L587.642 571.191L583.268 574.728L579.092 577.282L575.712 576.496L540.42 570.307L536.046 569.325L530.777 570.11L527.198 572.272L525.11 574.826L522.128 576.693L519.245 576.005L514.174 573.844L504.332 570.012L501.648 569.423L500.058 569.03L497.871 569.619L497.075 570.896L496.777 572.37L497.373 574.04L497.771 574.63L499.461 576.005L502.344 581.212L503.438 582.98L505.227 583.864L508.607 584.65L512.982 585.633L516.56 585.436L519.543 585.633L521.432 586.124L522.625 587.401L525.309 589.071L526.999 590.446L528.59 592.313L529.285 593.492L528.987 594.966L528.888 597.422L528.59 598.895L528.888 599.976L530.18 600.762L531.671 601.057L541.812 603.414H543.899L545.689 602.334L546.385 601.45L547.279 599.681L549.168 591.527L549.467 590.053L550.361 588.285L552.648 587.303L554.338 586.713H556.426L558.911 586.811L561.098 586.32L571.735 588.776L577.402 590.643L581.279 591.527L583.765 591.625L586.449 591.232L588.139 590.643L588.835 587.794L591.32 581.801L593.607 578.756L597.583 577.184L603.747 577.086L607.624 577.97L612.396 581.605L615.478 583.864L620.647 590.053L629.495 600.172L630.986 602.53L631.583 604.2L630.788 607.541L630.291 609.407L629.098 610.095L621.741 612.944L620.25 615.105L619.454 618.445L618.858 620.803L616.969 622.375L613.688 623.161L611.302 622.572L609.414 622.08L606.332 622.375L590.724 627.877L583.963 630.333L583.367 632.69L582.671 635.539L582.77 639.567L585.256 644.185L586.747 648.606L591.221 651.16L593.01 654.598L595.595 660.788L597.384 664.226L601.361 671.201L606.033 675.327L610.209 679.355L613.39 683.088L620.15 684.66Z" stroke="white" stroke-width="0.25"/>
</g>
<defs>
<clipPath id="clip0_676_1333">
<rect width="1080" height="1291" fill="white"/>
</clipPath>
</defs>
</svg>
