<svg width="57" height="55" viewBox="0 0 57 55" fill="none" xmlns="http://www.w3.org/2000/svg">
<path d="M29.133 23.0476V2.86661H21.569V0.882606H38.898V2.86661H31.365V23.0476H29.133ZM43.7853 10.4926H55.1623V12.4766H43.7853V21.0636H56.8983V23.0476H41.5223V0.882606H56.5573V2.86661H43.7853V10.4926ZM0.986174 54.0476V31.8826H9.63517C14.3782 31.8826 16.9512 34.0836 16.9512 38.1446C16.9512 41.0896 15.2152 43.1046 12.7972 43.7246V43.7866C17.8812 44.8096 16.1452 53.4896 17.3232 53.8616V54.0476H14.9362C13.8822 53.1176 15.9282 44.8406 10.0072 44.8406H3.24917V54.0476H0.986174ZM3.24917 33.8666V42.8566H9.10817C12.6422 42.8566 14.6882 41.2756 14.6882 38.1756C14.6882 35.3546 13.0762 33.8666 9.26317 33.8666H3.24917ZM28.3592 41.3996C32.8852 42.3916 36.4192 43.5076 36.4192 48.0026C36.4192 51.5986 33.9392 54.4506 28.6692 54.4506C23.3062 54.4506 19.4932 51.6916 19.1832 46.7006H21.5392C21.8492 50.1416 23.9572 52.4666 28.5762 52.4666C32.6682 52.4666 34.0632 50.5136 34.0632 48.0646C34.0942 44.7786 31.7692 44.2206 27.2432 43.1976C23.6162 42.3606 20.1132 41.2446 20.1132 37.1836C20.1132 33.6496 22.9342 31.4796 27.4602 31.4796C32.2962 31.4796 35.3342 33.9286 35.6752 38.2686H33.3192C32.9472 35.1996 31.2422 33.4636 27.4912 33.4636C24.2362 33.4636 22.4692 34.7966 22.4692 37.0906C22.4692 40.0666 25.1042 40.6866 28.3592 41.3996ZM56.8923 36.3156L52.6763 37.6796L55.3733 41.1206L54.0713 42.0506L51.3123 38.4546L48.5533 42.0506L47.2513 41.1206L49.9483 37.6796L45.7323 36.3156L46.2903 34.9516L50.4753 36.2536L50.4443 31.8826H52.1493L52.1183 36.2536L56.3343 34.9516L56.8923 36.3156Z" fill="#262626"/>
</svg>
