<svg width="68" height="63" viewBox="0 0 68 63" fill="none" xmlns="http://www.w3.org/2000/svg">
<path d="M19.2836 11.6253C18.6016 8.40126 16.0596 6.63426 12.4946 6.63426C6.94561 6.63426 4.55861 11.5323 4.55861 16.1513C4.55861 20.8013 6.44961 25.6373 12.2156 25.6373C16.5246 25.6373 19.7176 22.5063 19.7176 17.8563H12.3706V15.8413H21.9806V27.2183H20.4306L19.7486 23.2813H19.6866C18.2916 25.8853 15.9976 27.6213 12.2156 27.6213C5.70561 27.6213 2.20261 22.7543 2.20261 16.1513C2.20261 9.57926 6.20161 4.65026 12.4946 4.65026C17.7956 4.65026 20.8336 7.44026 21.6086 11.6253H19.2836ZM26.0135 5.05326H28.2765V14.6323H40.8005V5.05326H43.0635V27.2183H40.8005V16.6163H28.2765V27.2183H26.0135V5.05326ZM53.2218 27.2183V7.03726H45.6578V5.05326H62.9868V7.03726H55.4538V27.2183H53.2218Z" fill="#262626"/>
<path d="M62.7 37.0053L62.7 39.2683L40.535 39.2683L40.535 37.0053L62.7 37.0053ZM40.535 43.4838L62.7 43.4838L62.7 46.2428L43.728 58.2398L43.728 58.3018L62.7 58.3018L62.7 60.5338L40.535 60.5338L40.535 57.7748L59.507 45.8088L59.507 45.7468L40.535 45.7468L40.535 43.4838Z" fill="#262626"/>
</svg>
