<svg width="68" height="55" viewBox="0 0 68 55" fill="none" xmlns="http://www.w3.org/2000/svg">
<path d="M0.00619347 23.0476V0.882606H8.53119C12.5922 0.882606 15.6612 2.61861 15.6612 7.26861C15.6612 11.9186 12.5922 13.6856 8.53119 13.6856H2.26919V23.0476H0.00619347ZM2.26919 11.7016H8.74819C11.7242 11.7016 13.3052 10.3066 13.3052 7.26861C13.3052 4.26161 11.7242 2.86661 8.74819 2.86661H2.26919V11.7016ZM28.5754 23.4506C22.1894 23.4506 17.9424 18.6146 17.9424 11.9496C17.9424 5.28461 22.1894 0.479606 28.5754 0.479606C34.9614 0.479606 39.2394 5.28461 39.2394 11.9496C39.2394 18.6146 34.9614 23.4506 28.5754 23.4506ZM28.5754 21.4666C34.0624 21.4666 36.8834 17.1886 36.8834 11.9496C36.8834 6.71061 34.0624 2.46361 28.5754 2.46361C23.1194 2.46361 20.2984 6.71061 20.2984 11.9496C20.2984 17.1886 23.1194 21.4666 28.5754 21.4666ZM43.9632 31.8826H46.2262V54.0476H43.9632V31.8826ZM50.4417 54.0476V31.8826H53.2007L65.1977 50.8546H65.2597V31.8826H67.4917V54.0476H64.7327L52.7667 35.0756H52.7047V54.0476H50.4417Z" fill="#262626"/>
</svg>
