<svg width="45" height="116" viewBox="0 0 45 116" fill="none" xmlns="http://www.w3.org/2000/svg">
<path fill-rule="evenodd" clip-rule="evenodd" d="M0.401606 0.343048L0.401611 115.657L44.4016 115.657L44.4016 0.343046L0.401606 0.343048ZM39.4801 102.544L39.4801 92.2245L37.7689 92.2245L37.7689 95.6678L13.6864 95.6678L13.6864 92.2245L11.9647 92.2245L11.9647 102.544L13.6864 102.544L13.6864 99.1112L37.7689 99.1112L37.7689 102.544L39.4801 102.544ZM39.4801 88.7706L39.4801 80.1727L37.7689 80.1727L37.7689 83.6161L15.4081 83.6161L15.4081 81.8944L18.8409 81.8944L18.8409 80.1727L22.2843 80.1727L22.2843 78.451L25.7276 78.451L25.7276 76.7399L29.1605 76.7399L29.1605 75.0182L32.6039 75.0182L32.6039 73.2965L36.0472 73.2965L36.0472 71.5748L39.4801 71.5748L39.4801 66.4203L13.6864 66.4203L13.6864 62.9769L11.9647 62.9769L11.9647 71.5748L13.6864 71.5748L13.6864 68.1315L36.0472 68.1315L36.0472 69.8531L32.6039 69.8531L32.6039 71.5748L29.1605 71.5748L29.1605 73.2965L25.7276 73.2965L25.7276 75.0182L22.2843 75.0182L22.2843 76.7399L18.8409 76.7399L18.8409 78.451L15.4081 78.451L15.4081 80.1727L11.9647 80.1727L11.9647 88.7706L13.6864 88.7706L13.6864 85.3378L37.7689 85.3378L37.7689 88.7706L39.4801 88.7706ZM39.4801 60.3839L39.4801 50.0643L37.7689 50.0643L37.7689 53.5077L25.7276 53.5077L25.7276 44.9098L29.1605 44.9098L29.1605 43.1881L20.5626 43.1881L20.5626 44.9098L24.006 44.9098L24.006 53.5077L13.6864 53.5077L13.6864 44.9098L15.4081 44.9098L15.4081 43.1881L17.1297 43.1881L17.1297 41.4664L18.8409 41.4664L18.8409 39.7448L15.4081 39.7448L15.4081 41.4664L11.9647 41.4664L11.9647 60.3839L13.6864 60.3839L13.6864 56.951L37.7689 56.951L37.7689 60.3839L39.4801 60.3839ZM13.6864 28.5853L13.6864 19.9874L15.4081 19.9874L15.4081 18.2657L17.1297 18.2657L17.1297 16.5441L20.5626 16.5441L20.5626 14.8329L30.8822 14.8329L30.8822 16.5441L34.3255 16.5441L34.3255 18.2657L36.0472 18.2657L36.0472 19.9874L37.7689 19.9874L37.7689 28.5853L36.0472 28.5853L36.0472 30.307L34.3256 30.307L34.3256 32.0287L30.8822 32.0287L30.8822 33.7504L20.5626 33.7504L20.5626 32.0287L17.1297 32.0287L17.1297 30.307L15.4081 30.307L15.4081 28.5853L13.6864 28.5853ZM13.6864 28.5853L13.6864 32.0287L15.4081 32.0287L15.4081 33.7504L17.1297 33.7504L17.1297 35.472L20.5626 35.472L20.5626 37.1832L30.8822 37.1832L30.8822 35.472L34.3256 35.472L34.3256 33.7504L36.0472 33.7504L36.0472 32.0287L37.7689 32.0287L37.7689 28.5853L39.4801 28.5853L39.4801 19.9874L37.7689 19.9874L37.7689 16.5441L36.0472 16.5441L36.0472 14.8329L34.3255 14.8329L34.3255 13.1112L30.8822 13.1112L30.8822 11.3895L20.5626 11.3895L20.5626 13.1112L17.1297 13.1112L17.1297 14.8329L15.4081 14.8329L15.4081 16.5441L13.6864 16.5441L13.6864 19.9874L11.9647 19.9874L11.9647 28.5853L13.6864 28.5853Z" fill="#5868F5"/>
</svg>
