<svg width="66" height="54" viewBox="0 0 66 54" fill="none" xmlns="http://www.w3.org/2000/svg">
<g style="mix-blend-mode:luminosity" opacity="0.61" clip-path="url(#clip0_639_102)">
<path d="M2.40475 32.9677C1.68188 32.209 1.473 31.5734 1.78177 31.0627C2.0415 30.6383 2.56459 30.337 3.35467 30.1625C4.23193 29.9678 5.12373 29.9935 6.03368 30.2397C6.94182 30.4858 7.70648 30.9341 8.32765 31.5844C8.83075 32.1116 9.1032 32.5543 9.14497 32.9107C9.18675 33.2671 9.05234 33.5813 8.74176 33.8531C8.43117 34.125 7.99708 34.3216 7.43948 34.4447C6.54587 34.6431 5.64863 34.6192 4.74776 34.373C3.84688 34.1269 3.06588 33.6584 2.40657 32.9658L2.40475 32.9677ZM3.51632 32.7215C4.01761 33.2469 4.56976 33.5996 5.17458 33.7815C5.7794 33.9634 6.35335 33.9946 6.89278 33.8752C7.42859 33.7558 7.75007 33.5261 7.85723 33.1845C7.96257 32.8428 7.76097 32.4037 7.24696 31.8655C6.76383 31.3584 6.21894 31.0149 5.61049 30.833C5.00385 30.6512 4.43354 30.6199 3.89955 30.7375C3.3583 30.8569 3.035 31.0866 2.92603 31.4264C2.81705 31.7663 3.01321 32.198 3.5145 32.7215H3.51632Z" fill="black"/>
<path d="M13.1008 34.983L7.69558 29.312L8.68 29.0934L9.18856 29.6261C9.22126 29.3671 9.33568 29.1522 9.52821 28.9832C9.72073 28.8141 10.0259 28.6837 10.4418 28.5919C10.9867 28.4706 11.5534 28.4541 12.1418 28.5423C12.7303 28.6304 13.2861 28.8141 13.811 29.0952C14.3359 29.3763 14.7845 29.7125 15.1587 30.1038C15.5583 30.5226 15.8016 30.9268 15.887 31.3144C15.9724 31.702 15.8779 32.0345 15.6018 32.3119C15.3258 32.5893 14.9407 32.784 14.4485 32.8924C14.0889 32.9714 13.7184 32.9953 13.3388 32.9604C12.9592 32.9255 12.6068 32.8538 12.2799 32.7454L14.1815 34.7405L13.1008 34.9793V34.983ZM10.6507 31.1692C11.1538 31.6965 11.6914 32.0492 12.2635 32.2274C12.8357 32.4056 13.3587 32.4423 13.831 32.3376C14.3123 32.2311 14.5993 32.0088 14.6919 31.6726C14.7845 31.3364 14.5702 30.8937 14.0489 30.3444C13.5513 29.8227 13.01 29.4681 12.4288 29.2826C11.8458 29.0971 11.3227 29.0548 10.8595 29.1577C10.3982 29.2606 10.1239 29.4883 10.0331 29.8429C9.94232 30.1974 10.1494 30.6402 10.6507 31.1674V31.1692Z" fill="black"/>
<path d="M21.5538 29.6077L22.7562 29.4497C22.9796 29.909 22.9632 30.3058 22.7071 30.6438C22.451 30.9818 21.9534 31.2317 21.2123 31.3951C20.2788 31.6027 19.3634 31.5807 18.4643 31.3327C17.5652 31.0847 16.7988 30.6273 16.1631 29.9604C15.5056 29.2715 15.2713 28.6745 15.462 28.1711C15.6527 27.6678 16.1867 27.3187 17.0676 27.124C17.9485 26.9293 18.7949 26.9679 19.6921 27.2195C20.5875 27.4731 21.3595 27.9378 22.0042 28.6139C22.0442 28.6543 22.1005 28.7167 22.175 28.8012L17.4181 29.8557C17.8867 30.2966 18.4134 30.5979 18.9983 30.7577C19.5831 30.9175 20.1407 30.9396 20.6747 30.822C21.0707 30.7338 21.3449 30.5924 21.4993 30.3958C21.6519 30.1992 21.67 29.9365 21.5556 29.6077H21.5538ZM16.9332 29.2715L20.4949 28.4816C20.1189 28.1473 19.7357 27.9195 19.347 27.7964C18.7476 27.6053 18.1737 27.5704 17.6252 27.6917C17.1293 27.8019 16.8133 28.0003 16.6789 28.2905C16.5445 28.579 16.6299 28.906 16.935 29.2715H16.9332Z" fill="black"/>
<path d="M25.2863 30.3793L21.3776 26.2808L22.3511 26.0659L22.9069 26.6482C22.9469 26.0934 23.4082 25.7187 24.2928 25.5221C24.6778 25.4376 25.0738 25.4027 25.4806 25.4211C25.8874 25.4376 26.2398 25.5019 26.5377 25.6103C26.8355 25.7187 27.1098 25.8657 27.3641 26.0494C27.5275 26.1688 27.7618 26.3892 28.0688 26.7107L30.4717 29.2311L29.3911 29.4699L27.0135 26.9771C26.7429 26.6942 26.4995 26.4921 26.2816 26.3708C26.0636 26.2496 25.8075 26.1706 25.5133 26.1339C25.2191 26.0971 24.9284 26.1118 24.6397 26.1761C24.1783 26.279 23.8714 26.4609 23.7152 26.7217C23.559 26.9844 23.7333 27.3775 24.2328 27.9029L26.3669 30.1423L25.2863 30.3811V30.3793Z" fill="black"/>
<path d="M33.9481 26.9771L34.9144 26.6317C35.2377 26.8944 35.6045 27.0671 36.0187 27.1535C36.4328 27.2398 36.8868 27.2269 37.3791 27.1185C37.8749 27.0083 38.1818 26.8614 38.2981 26.6795C38.4143 26.4958 38.3889 26.3176 38.2218 26.1431C38.0729 25.9869 37.8477 25.8859 37.5498 25.8436C37.3427 25.8142 36.8996 25.8179 36.2203 25.8528C35.3049 25.9006 34.6492 25.9098 34.2532 25.8841C33.8573 25.8583 33.5013 25.7793 33.1853 25.6489C32.8692 25.5185 32.6149 25.3513 32.4242 25.1511C32.2499 24.9692 32.1536 24.7855 32.1354 24.6C32.1173 24.4163 32.1718 24.2472 32.2971 24.0948C32.3897 23.9772 32.5532 23.8596 32.7911 23.7402C33.0291 23.6208 33.3142 23.5234 33.6466 23.45C34.1479 23.3397 34.631 23.2883 35.0978 23.2975C35.5646 23.3067 35.9642 23.3691 36.2947 23.4885C36.6253 23.608 36.9522 23.7917 37.2719 24.0415L36.3038 24.3685C36.055 24.1683 35.7589 24.0341 35.4157 23.9662C35.0724 23.8982 34.691 23.9111 34.2696 24.0048C33.7737 24.115 33.4686 24.2454 33.3578 24.3979C33.2452 24.5504 33.2579 24.6973 33.3923 24.8388C33.4777 24.9288 33.5994 25.0004 33.7556 25.0519C33.9154 25.107 34.1116 25.1382 34.3459 25.1456C34.4785 25.1456 34.8526 25.1364 35.4701 25.1107C36.3601 25.0721 36.9958 25.0611 37.3791 25.0776C37.7605 25.0941 38.1146 25.1639 38.4379 25.2852C38.7631 25.4064 39.0373 25.5865 39.2625 25.8216C39.4841 26.0531 39.5858 26.2937 39.5713 26.5454C39.5568 26.7971 39.4042 27.0212 39.1136 27.2214C38.823 27.4217 38.4289 27.576 37.9276 27.688C37.0993 27.8717 36.3619 27.9011 35.7153 27.7762C35.0706 27.6513 34.4803 27.3849 33.9445 26.9771H33.9481Z" fill="black"/>
<path d="M43.1966 28.3126L37.7913 22.6416L38.7758 22.423L39.2843 22.9558C39.317 22.6967 39.4314 22.4818 39.624 22.3128C39.8165 22.1438 40.1216 22.0134 40.5376 21.9215C41.0824 21.8003 41.6491 21.7837 42.2376 21.8719C42.8261 21.9601 43.3819 22.1438 43.9068 22.4249C44.4317 22.7059 44.8803 23.0421 45.2544 23.4334C45.654 23.8523 45.8974 24.2564 45.9828 24.644C46.0681 25.0316 45.9737 25.3641 45.6976 25.6415C45.4215 25.9189 45.0365 26.1137 44.5443 26.222C44.1847 26.301 43.8141 26.3249 43.4345 26.29C43.0549 26.2551 42.7026 26.1835 42.3756 26.0751L44.2773 28.0701L43.1966 28.3089V28.3126ZM40.7464 24.4989C41.2495 25.0261 41.7872 25.3788 42.3593 25.557C42.9314 25.7352 43.4545 25.772 43.9267 25.6673C44.4081 25.5607 44.695 25.3384 44.7877 25.0022C44.8803 24.6661 44.666 24.2233 44.1447 23.6741C43.647 23.1523 43.1058 22.7978 42.5246 22.6122C41.9415 22.4267 41.4185 22.3845 40.9553 22.4873C40.4922 22.5902 40.2197 22.818 40.1289 23.1725C40.0381 23.5271 40.2451 23.9698 40.7464 24.4971V24.4989Z" fill="black"/>
<path d="M52.2217 23.7971C52.0292 24.1039 51.7912 24.3446 51.5061 24.5173C51.2209 24.6899 50.8668 24.8222 50.4418 24.9159C49.7407 25.072 49.0977 25.0812 48.511 24.9434C47.9244 24.8075 47.4685 24.5669 47.1416 24.2252C46.9509 24.0249 46.8473 23.8247 46.831 23.6281C46.8146 23.4316 46.8746 23.257 47.009 23.1046C47.1434 22.9539 47.3305 22.8198 47.5702 22.7041C47.7482 22.6214 48.0352 22.5149 48.4311 22.3863C49.2394 22.1254 49.8079 21.9031 50.1312 21.7194C50.044 21.6239 49.9895 21.5614 49.9641 21.5376C49.6934 21.2547 49.4028 21.0783 49.0868 21.0067C48.6618 20.9111 48.175 20.924 47.6301 21.0434C47.1216 21.1555 46.8001 21.2969 46.6675 21.4641C46.5349 21.6331 46.5476 21.8737 46.7093 22.1916L45.5632 22.333C45.3816 22.0207 45.3162 21.7507 45.3671 21.5229C45.4161 21.2951 45.6032 21.0875 45.9283 20.8983C46.2534 20.7091 46.6893 20.5547 47.2378 20.4335C47.7827 20.3123 48.264 20.2553 48.6836 20.2627C49.1032 20.27 49.4519 20.3178 49.7316 20.4078C50.0113 20.4978 50.2728 20.6301 50.518 20.8064C50.667 20.9166 50.8886 21.1261 51.1828 21.4347L52.0655 22.3606C52.6812 23.0072 53.0935 23.4095 53.3024 23.5712C53.5113 23.7328 53.7583 23.8761 54.0453 24.0029L52.9155 24.2527C52.6667 24.1333 52.4324 23.9808 52.2181 23.7953L52.2217 23.7971ZM50.6524 22.265C50.3582 22.4542 49.8533 22.6729 49.1358 22.919C48.7308 23.0586 48.4602 23.1744 48.3258 23.2662C48.1914 23.3581 48.1205 23.4646 48.1151 23.5859C48.1096 23.7071 48.1641 23.8284 48.2804 23.9496C48.4566 24.1351 48.7127 24.2656 49.0487 24.3409C49.3847 24.4162 49.7625 24.407 50.1838 24.3133C50.5998 24.2215 50.9158 24.08 51.1283 23.8908C51.3408 23.7016 51.4262 23.4885 51.3844 23.2515C51.3517 23.0697 51.1882 22.8253 50.8958 22.5185L50.6524 22.2632V22.265Z" fill="black"/>
<path d="M58.1137 21.2841L59.2616 21.1371C59.594 21.6331 59.6485 22.0685 59.4232 22.4414C59.198 22.8143 58.7385 23.077 58.0411 23.2314C57.1674 23.4242 56.292 23.3967 55.4111 23.1487C54.5302 22.8988 53.7637 22.4322 53.1117 21.7489C52.6903 21.3061 52.4342 20.8928 52.347 20.5107C52.258 20.1286 52.3688 19.8016 52.6776 19.5334C52.9863 19.2633 53.415 19.0686 53.9635 18.9474C54.6555 18.793 55.3293 18.7802 55.985 18.9088C56.6407 19.0355 57.2274 19.2927 57.7468 19.6803L56.7951 20.0184C56.4318 19.7648 56.0577 19.5977 55.6708 19.515C55.2839 19.4323 54.9098 19.4305 54.5502 19.5113C54.0053 19.6326 53.682 19.8549 53.5821 20.1819C53.4804 20.5089 53.6892 20.9424 54.2069 21.4862C54.7318 22.0373 55.2767 22.401 55.8434 22.5774C56.41 22.7537 56.9567 22.7831 57.4853 22.6674C57.9103 22.5737 58.1845 22.412 58.3099 22.1806C58.4352 21.9509 58.3698 21.6533 58.1137 21.2896V21.2841Z" fill="black"/>
<path d="M64.6414 20.0569L65.8438 19.8989C66.0672 20.3582 66.0508 20.755 65.7948 21.093C65.5387 21.431 65.041 21.6809 64.3 21.8444C63.3664 22.052 62.451 22.0299 61.5519 21.7819C60.6529 21.5339 59.8864 21.0765 59.2507 20.4096C58.5932 19.7207 58.3589 19.1237 58.5496 18.6204C58.7385 18.117 59.2743 17.768 60.1552 17.5732C61.0089 17.384 61.8825 17.4171 62.7797 17.6688C63.6752 17.9223 64.4471 18.387 65.0919 19.0631C65.1318 19.1035 65.1881 19.166 65.2626 19.2505L60.5057 20.3049C60.9743 20.7458 61.5011 21.0471 62.0859 21.2069C62.6707 21.3667 63.2283 21.3888 63.7623 21.2712C64.1583 21.183 64.4325 21.0416 64.5869 20.845C64.7395 20.6485 64.7577 20.3858 64.6432 20.0569H64.6414ZM60.0208 19.7207L63.5825 18.9308C63.2066 18.5965 62.8233 18.3687 62.4346 18.2456C61.8353 18.0545 61.2613 18.0196 60.7128 18.1409C60.217 18.2511 59.9009 18.4495 59.7665 18.7398C59.6321 19.0282 59.7175 19.3552 60.0226 19.7207H60.0208Z" fill="black"/>
<path d="M0.761021 15.5157C0.0381413 14.757 -0.170731 14.1214 0.138037 13.6107C0.397765 13.1863 0.920854 12.8851 1.71094 12.7105C2.5882 12.5158 3.47999 12.5415 4.38995 12.7877C5.29809 13.0339 6.06274 13.4821 6.68391 14.1324C7.18702 14.6597 7.45946 15.1024 7.50124 15.4588C7.54301 15.8152 7.40861 16.1293 7.09802 16.4012C6.78744 16.6731 6.35335 16.8696 5.79575 16.9927C4.90214 17.1911 4.0049 17.1672 3.10402 16.9211C2.20315 16.6749 1.42215 16.2064 0.762837 15.5139L0.761021 15.5157ZM1.87258 15.2696C2.37388 15.795 2.92603 16.1477 3.53085 16.3295C4.13567 16.5114 4.70961 16.5426 5.24905 16.4232C5.78485 16.3038 6.10633 16.0742 6.21349 15.7325C6.31884 15.3908 6.11723 14.9517 5.60322 14.4135C5.12009 13.9065 4.57521 13.5629 3.96676 13.3811C3.36012 13.1992 2.78981 13.168 2.25582 13.2855C1.71457 13.405 1.39127 13.6346 1.28229 13.9744C1.17332 14.3143 1.36947 14.746 1.87077 15.2696H1.87258Z" fill="black"/>
<path d="M11.4571 17.531L6.05185 11.86L7.03627 11.6414L7.54483 12.1742C7.57752 11.9151 7.69195 11.7002 7.88447 11.5312C8.077 11.3622 8.38213 11.2318 8.79806 11.1399C9.34295 11.0187 9.90963 11.0021 10.4981 11.0903C11.0866 11.1785 11.6424 11.3622 12.1673 11.6433C12.6922 11.9243 13.1408 12.2605 13.5149 12.6518C13.9145 13.0706 14.1579 13.4748 14.2433 13.8624C14.3286 14.25 14.2342 14.5825 13.9581 14.8599C13.682 15.1373 13.297 15.332 12.8048 15.4404C12.4452 15.5194 12.0746 15.5433 11.695 15.5084C11.3154 15.4735 10.9631 15.4018 10.6361 15.2935L12.5378 17.2885L11.4571 17.5273V17.531ZM9.00693 13.7173C9.51004 14.2445 10.0477 14.5972 10.6198 14.7754C11.1919 14.9536 11.715 14.9903 12.1872 14.8856C12.6686 14.7791 12.9555 14.5568 13.0482 14.2206C13.1408 13.8844 12.9265 13.4417 12.4052 12.8924C11.9075 12.3707 11.3663 12.0162 10.7851 11.8306C10.202 11.6451 9.67896 11.6028 9.21581 11.7057C8.75447 11.8086 8.48021 12.0364 8.3894 12.3909C8.29858 12.7455 8.50564 13.1882 9.00693 13.7154V13.7173Z" fill="black"/>
<path d="M19.9101 12.1557L21.1124 11.9978C21.3358 12.457 21.3195 12.8538 21.0634 13.1918C20.8073 13.5298 20.3096 13.7797 19.5686 13.9432C18.635 14.1508 17.7196 14.1287 16.8206 13.8807C15.9215 13.6327 15.155 13.1753 14.5193 12.5085C13.8619 11.8196 13.6276 11.2225 13.8183 10.7192C14.0072 10.2158 14.543 9.86678 15.4239 9.67205C16.2775 9.48283 17.1511 9.5159 18.0484 9.76758C18.9438 10.0211 19.7157 10.4859 20.3605 11.1619C20.4005 11.2023 20.4568 11.2648 20.5312 11.3493L15.7744 12.4037C16.243 12.8446 16.7697 13.1459 17.3546 13.3057C17.9394 13.4656 18.497 13.4876 19.031 13.37C19.4269 13.2818 19.7012 13.1404 19.8556 12.9438C20.0081 12.7473 20.0263 12.4846 19.9119 12.1557H19.9101ZM15.2894 11.8196L18.8512 11.0296C18.4752 10.6953 18.092 10.4675 17.7033 10.3444C17.1039 10.1534 16.53 10.1185 15.9814 10.2397C15.4856 10.3499 15.1696 10.5483 15.0352 10.8386C14.9008 11.127 14.9861 11.454 15.2913 11.8196H15.2894Z" fill="black"/>
<path d="M23.6443 12.9273L19.7357 8.82886L20.7092 8.61393L21.265 9.19627C21.305 8.64148 21.7663 8.26673 22.6508 8.07016C23.0359 7.98566 23.4318 7.95075 23.8387 7.96913C24.2455 7.98566 24.5979 8.04996 24.8958 8.15834C25.1936 8.26673 25.4679 8.41369 25.7222 8.5974C25.8856 8.7168 26.1199 8.93725 26.4269 9.25873L28.8298 11.7792L27.7491 12.018L25.3716 9.5251C25.101 9.2422 24.8576 9.04012 24.6397 8.91888C24.4217 8.79763 24.1656 8.71864 23.8714 8.6819C23.5771 8.64516 23.2865 8.65986 22.9977 8.72415C22.5364 8.82703 22.2295 9.00889 22.0733 9.26975C21.9171 9.53245 22.0914 9.92558 22.5909 10.451L24.725 12.6903L23.6443 12.9292V12.9273Z" fill="black"/>
<path d="M32.3044 9.52513L33.2706 9.17977C33.5939 9.44247 33.9608 9.61515 34.3749 9.70149C34.789 9.78783 35.2431 9.77497 35.7353 9.66658C36.2312 9.55636 36.5381 9.4094 36.6544 9.22753C36.7706 9.04566 36.7452 8.86563 36.5781 8.69111C36.4291 8.53496 36.2039 8.43393 35.906 8.39167C35.699 8.36228 35.2558 8.36596 34.5765 8.40086C33.6611 8.44862 33.0054 8.45781 32.6095 8.43209C32.2135 8.40637 31.8576 8.32738 31.5415 8.19695C31.2255 8.06652 30.9712 7.89935 30.7805 7.69911C30.6061 7.51724 30.5099 7.33354 30.4917 7.14799C30.4736 6.96429 30.528 6.79528 30.6534 6.64281C30.746 6.52523 30.9095 6.40766 31.1474 6.28826C31.3853 6.16885 31.6705 6.07148 32.0029 5.998C32.5042 5.88778 32.9873 5.83634 33.4541 5.84553C33.9209 5.85471 34.3204 5.91717 34.651 6.03658C34.9816 6.15415 35.3085 6.33969 35.6282 6.58953L34.6601 6.91653C34.4112 6.71629 34.1152 6.58218 33.7719 6.51421C33.4286 6.44624 33.0472 6.4591 32.6258 6.55279C32.13 6.66301 31.8249 6.79344 31.7141 6.94592C31.6015 7.09839 31.6142 7.24536 31.7486 7.38681C31.8339 7.47682 31.9556 7.54847 32.1118 7.59991C32.2717 7.65502 32.4678 7.68625 32.7021 7.6936C32.8347 7.6936 33.2089 7.68441 33.8264 7.65869C34.7164 7.62011 35.3521 7.60909 35.7353 7.62563C36.1167 7.64216 36.4709 7.71197 36.7942 7.83321C37.1193 7.95446 37.3936 8.13449 37.6188 8.36963C37.8404 8.6011 37.9421 8.84175 37.9276 9.09343C37.913 9.3451 37.7605 9.56922 37.4699 9.76946C37.1793 9.9697 36.7851 10.124 36.2838 10.2361C35.4556 10.4198 34.7182 10.4492 34.0716 10.3242C33.4268 10.1993 32.8365 9.93296 32.3007 9.52513H32.3044Z" fill="black"/>
<path d="M41.5529 10.8606L36.1476 5.18967L37.132 4.97106L37.6406 5.50381C37.6733 5.24478 37.7877 5.02985 37.9802 4.86084C38.1728 4.69183 38.4779 4.5614 38.8938 4.46955C39.4387 4.3483 40.0054 4.33177 40.5939 4.41995C41.1823 4.50813 41.7381 4.69183 42.263 4.9729C42.7879 5.25397 43.2366 5.59015 43.6107 5.98144C44.0103 6.40029 44.2537 6.80444 44.339 7.19205C44.4244 7.57967 44.33 7.91218 44.0539 8.18957C43.7778 8.46697 43.3928 8.66169 42.9005 8.77008C42.5409 8.84907 42.1704 8.87295 41.7908 8.83805C41.4112 8.80314 41.0588 8.7315 40.7319 8.62311L42.6335 10.6181L41.5529 10.857V10.8606ZM39.1027 7.04693C39.6058 7.57416 40.1434 7.92687 40.7156 8.10507C41.2877 8.28326 41.8108 8.32 42.283 8.21529C42.7643 8.10874 43.0513 7.88646 43.1439 7.55028C43.2366 7.2141 43.0222 6.77137 42.501 6.22209C42.0033 5.70037 41.462 5.34582 40.8808 5.16028C40.2978 4.97474 39.7747 4.93249 39.3116 5.03536C38.8502 5.13823 38.576 5.36603 38.4852 5.72058C38.3943 6.07513 38.6014 6.51786 39.1027 7.04509V7.04693Z" fill="black"/>
<path d="M50.578 6.34517C50.3854 6.65195 50.1475 6.89261 49.8623 7.06529C49.5772 7.23797 49.223 7.37024 48.798 7.46393C48.0969 7.62008 47.454 7.62926 46.8673 7.49148C46.2806 7.35554 45.8247 7.11489 45.4978 6.7732C45.3071 6.57296 45.2036 6.37272 45.1872 6.17616C45.1709 5.97959 45.2308 5.80508 45.3652 5.6526C45.4996 5.50196 45.6867 5.36786 45.9265 5.25212C46.1045 5.16946 46.3914 5.06291 46.7874 4.93431C47.5956 4.67345 48.1641 4.45117 48.4874 4.26747C48.4002 4.17194 48.3457 4.10948 48.3203 4.0856C48.0497 3.80269 47.7591 3.62634 47.4431 3.55469C47.018 3.45917 46.5313 3.47203 45.9864 3.59143C45.4778 3.70349 45.1564 3.84495 45.0238 4.01212C44.8912 4.18113 44.9039 4.42178 45.0655 4.73959L43.9195 4.88104C43.7378 4.56874 43.6725 4.2987 43.7233 4.0709C43.7724 3.84311 43.9594 3.63552 44.2845 3.44631C44.6097 3.25709 45.0456 3.10278 45.5941 2.98153C46.139 2.86029 46.6203 2.80334 47.0398 2.81069C47.4594 2.81804 47.8081 2.8658 48.0878 2.95582C48.3675 3.04583 48.6291 3.1781 48.8743 3.35445C49.0232 3.46468 49.2448 3.6741 49.539 3.98272L50.4218 4.9086C51.0375 5.55524 51.4498 5.95755 51.6586 6.11921C51.8675 6.28087 52.1145 6.42416 52.4015 6.55092L51.2718 6.80075C51.0229 6.68135 50.7886 6.52887 50.5743 6.34333L50.578 6.34517ZM49.0087 4.81307C48.7144 5.00229 48.2095 5.22089 47.4921 5.46706C47.0871 5.60667 46.8164 5.72241 46.682 5.81426C46.5476 5.90611 46.4768 6.01266 46.4713 6.13391C46.4659 6.25515 46.5204 6.3764 46.6366 6.49764C46.8128 6.68318 47.0689 6.81361 47.4049 6.88893C47.7409 6.96425 48.1187 6.95507 48.5401 6.86138C48.956 6.76952 49.2721 6.62807 49.4846 6.43886C49.6971 6.24964 49.7824 6.03654 49.7406 5.79956C49.708 5.6177 49.5445 5.37337 49.2521 5.06658L49.0087 4.81123V4.81307Z" fill="black"/>
<path d="M56.47 3.83212L57.6179 3.68516C57.9502 4.18116 58.0047 4.61654 57.7795 4.98946C57.5543 5.36238 57.0948 5.62508 56.3973 5.77939C55.5237 5.97228 54.6482 5.94472 53.7673 5.69672C52.8865 5.44688 52.12 4.98027 51.4679 4.29689C51.0466 3.85416 50.7905 3.44083 50.7033 3.05872C50.6143 2.67662 50.7251 2.34962 51.0339 2.08141C51.3426 1.81137 51.7713 1.61664 52.3198 1.4954C53.0118 1.34108 53.6856 1.32822 54.3413 1.45682C54.997 1.58357 55.5836 1.84076 56.1031 2.22838L55.1514 2.56639C54.7881 2.31288 54.4139 2.14571 54.0271 2.06304C53.6402 1.98038 53.2661 1.97854 52.9064 2.05937C52.3616 2.18061 52.0382 2.4029 51.9384 2.72989C51.8366 3.05689 52.0455 3.49043 52.5632 4.03419C53.0881 4.58531 53.6329 4.94904 54.1996 5.1254C54.7663 5.30176 55.313 5.33115 55.8415 5.21542C56.2666 5.12173 56.5408 4.96007 56.6661 4.7286C56.7915 4.49897 56.7261 4.20137 56.47 3.83763V3.83212Z" fill="black"/>
<path d="M62.9995 2.60496L64.2019 2.44697C64.4253 2.90623 64.4089 3.30303 64.1528 3.64105C63.8967 3.97907 63.3991 4.22891 62.658 4.3924C61.7245 4.59999 60.8091 4.57795 59.91 4.32994C59.0109 4.08194 58.2445 3.62452 57.6088 2.95767C56.9513 2.26878 56.717 1.67174 56.9077 1.16839C57.0966 0.665035 57.6324 0.315996 58.5133 0.121269C59.3669 -0.0679469 60.2406 -0.0348801 61.1378 0.216795C62.0332 0.470308 62.8052 0.935081 63.4499 1.61111C63.4899 1.65153 63.5462 1.71399 63.6207 1.79849L58.8638 2.85296C59.3324 3.29385 59.8591 3.59513 60.444 3.75495C61.0288 3.91477 61.5864 3.93682 62.1204 3.81924C62.5164 3.73107 62.7906 3.58961 62.945 3.39305C63.0976 3.19649 63.1157 2.93379 63.0013 2.60496H62.9995ZM58.3789 2.26878L61.9406 1.47885C61.5646 1.1445 61.1814 0.91671 60.7927 0.793628C60.1933 0.602575 59.6194 0.567671 59.0709 0.688917C58.575 0.799139 58.259 0.997541 58.1246 1.28779C57.9902 1.57621 58.0756 1.9032 58.3807 2.26878H58.3789Z" fill="black"/>
<path d="M3.75243 49.1796C2.92603 47.8423 2.62997 46.7823 2.86427 45.996C3.06225 45.3439 3.53811 44.9324 4.29732 44.7616C5.14007 44.5723 6.03005 44.745 6.96725 45.2741C7.90445 45.805 8.72722 46.6445 9.43376 47.7908C10.0077 48.7204 10.3401 49.4772 10.4327 50.0633C10.5253 50.6493 10.4363 51.1398 10.1657 51.5347C9.89509 51.9315 9.49188 52.1887 8.95789 52.3081C8.09879 52.501 7.20518 52.332 6.27525 51.8011C5.34531 51.272 4.50437 50.3976 3.75243 49.1778V49.1796ZM4.82041 48.9408C5.39072 49.8649 5.99009 50.5189 6.61671 50.9028C7.24332 51.2867 7.81727 51.419 8.33673 51.3033C8.85255 51.1875 9.13952 50.8605 9.19583 50.3223C9.25213 49.784 8.98877 49.04 8.40393 48.0921C7.85178 47.1993 7.26149 46.5619 6.63305 46.1779C6.00462 45.7958 5.43431 45.6599 4.92212 45.7756C4.40266 45.8913 4.11206 46.2165 4.05212 46.7511C3.99218 47.2857 4.24828 48.015 4.81859 48.939L4.82041 48.9408Z" fill="black"/>
<path d="M14.6538 54L8.48566 44.012L9.43194 43.8008L10.0113 44.7395C10.0077 44.3225 10.0894 43.99 10.2584 43.7438C10.4254 43.4976 10.7106 43.3286 11.1102 43.2405C11.6333 43.1229 12.1927 43.178 12.7902 43.4058C13.386 43.6336 13.9654 44.0139 14.5266 44.5466C15.0878 45.0793 15.5801 45.6892 16.0069 46.3781C16.4628 47.1166 16.7606 47.8074 16.9005 48.4485C17.0403 49.0896 16.9931 49.6168 16.7588 50.0283C16.5245 50.4398 16.1703 50.697 15.6963 50.8036C15.3494 50.8807 14.9861 50.8642 14.6047 50.754C14.2233 50.6438 13.8619 50.4766 13.524 50.2525L15.6945 53.7667L14.6556 54H14.6538ZM11.6823 47.4528C12.2563 48.3823 12.8393 49.0327 13.4332 49.4056C14.0271 49.7785 14.5502 49.9144 15.0043 49.8116C15.4656 49.7087 15.7199 49.3891 15.7653 48.8563C15.8107 48.3236 15.5346 47.5722 14.9389 46.6078C14.3704 45.6874 13.7838 45.0353 13.1807 44.6495C12.5759 44.2637 12.051 44.1204 11.6042 44.2196C11.161 44.3188 10.9213 44.6495 10.8813 45.2134C10.8414 45.7774 11.1084 46.5233 11.6823 47.4528Z" fill="black"/>
<path d="M22.2839 46.4957L23.4536 46.4112C23.7406 47.1883 23.7806 47.8312 23.5753 48.3419C23.3683 48.8526 22.9106 49.187 22.1986 49.3468C21.3013 49.547 20.3896 49.3817 19.4633 48.8489C18.537 48.3162 17.7105 47.462 16.9859 46.2881C16.2357 45.0738 15.9197 44.0708 16.0359 43.2809C16.1522 42.4909 16.6353 42.0023 17.4817 41.8112C18.3008 41.6275 19.1745 41.8075 20.099 42.3476C21.0253 42.8877 21.8553 43.7548 22.5909 44.9471C22.6363 45.0187 22.6999 45.1289 22.7871 45.2741L18.2137 46.2973C18.7422 47.0817 19.3071 47.6475 19.9101 47.991C20.5131 48.3364 21.0707 48.4503 21.5829 48.3364C21.9643 48.2519 22.2167 48.0609 22.3402 47.7651C22.4638 47.4693 22.4456 47.045 22.2839 46.4939V46.4957ZM17.6506 45.2814L21.0743 44.5154C20.6529 43.9183 20.2406 43.4921 19.8374 43.2368C19.2144 42.84 18.6405 42.7004 18.1138 42.8179C17.6361 42.9245 17.3509 43.2019 17.2583 43.6519C17.1657 44.1002 17.2964 44.6439 17.6506 45.2814Z" fill="black"/>
<path d="M26.0981 48.2887L21.6392 41.0672L22.5745 40.8578L23.2084 41.8847C23.1685 40.9901 23.5753 40.4481 24.4253 40.2589C24.794 40.1763 25.1827 40.1781 25.5896 40.2663C25.9964 40.3526 26.3542 40.5069 26.6648 40.7255C26.9754 40.9441 27.2696 41.2215 27.5457 41.5577C27.7237 41.7763 27.9889 42.1676 28.3376 42.7353L31.0784 47.1754L30.0395 47.4087L27.3278 43.0163C27.019 42.5185 26.7502 42.1548 26.5159 41.9251C26.2816 41.6955 26.0164 41.5302 25.7203 41.4291C25.4243 41.3281 25.1373 41.3079 24.8594 41.3703C24.4163 41.4695 24.1365 41.7212 24.0203 42.1235C23.9022 42.5258 24.1293 43.1909 24.7014 44.1149L27.137 48.059L26.0981 48.2923V48.2887Z" fill="black"/>
<path d="M34.2133 44.0212L35.1232 43.6005C35.481 44.0727 35.8715 44.4088 36.2947 44.6072C36.7179 44.8075 37.1666 44.8534 37.6406 44.7469C38.1183 44.6403 38.4016 44.4456 38.4906 44.1663C38.5796 43.8853 38.5306 43.5914 38.3399 43.2827C38.1691 43.0072 37.933 42.8124 37.6315 42.6985C37.4226 42.6214 36.9831 42.5626 36.3129 42.5222C35.4102 42.4652 34.7618 42.3881 34.364 42.2889C33.9663 42.1897 33.603 42.0097 33.2706 41.7525C32.9382 41.4934 32.6622 41.1885 32.4442 40.8339C32.2462 40.5125 32.1246 40.2002 32.0791 39.897C32.0356 39.5939 32.0646 39.3294 32.1681 39.0998C32.2426 38.9234 32.3897 38.7544 32.6095 38.5946C32.8275 38.4348 33.0981 38.319 33.4177 38.2474C33.8991 38.139 34.3713 38.1261 34.8363 38.2088C35.3012 38.2915 35.7063 38.4513 36.0514 38.6919C36.3964 38.9326 36.747 39.278 37.0993 39.7299L36.1839 40.1212C35.9079 39.7593 35.5955 39.5002 35.2449 39.3404C34.8944 39.1824 34.5184 39.1475 34.1134 39.2376C33.6357 39.3441 33.3524 39.5131 33.2634 39.7446C33.1744 39.976 33.2071 40.2167 33.3596 40.4665C33.4577 40.6245 33.5885 40.7586 33.7519 40.867C33.9172 40.9791 34.117 41.0581 34.3513 41.104C34.4839 41.126 34.8544 41.1609 35.4629 41.2105C36.3401 41.2767 36.9704 41.352 37.3518 41.4347C37.7332 41.5173 38.0929 41.6808 38.4325 41.9233C38.7721 42.1676 39.07 42.4983 39.3279 42.9153C39.5858 43.3323 39.7166 43.7291 39.7366 44.1351C39.7566 44.5411 39.6367 44.8846 39.3788 45.1675C39.1209 45.4504 38.7485 45.6452 38.2672 45.7536C37.4699 45.9318 36.7434 45.873 36.084 45.5772C35.4247 45.2814 34.8018 44.7616 34.2133 44.0231V44.0212Z" fill="black"/>
<path d="M43.5816 47.5263L37.4136 37.5383L38.3598 37.327L38.9392 38.2657C38.9356 37.8487 39.0173 37.5162 39.1862 37.2701C39.3533 37.0239 39.6385 36.8549 40.0381 36.7667C40.5612 36.6491 41.1206 36.7042 41.7181 36.932C42.3139 37.1598 42.8933 37.5401 43.4545 38.0728C44.0157 38.6056 44.5079 39.2155 44.9348 39.9044C45.3907 40.6429 45.6885 41.3336 45.8284 41.9747C45.9682 42.6159 45.921 43.1431 45.6867 43.5546C45.4524 43.9661 45.0982 44.2233 44.6242 44.3298C44.2773 44.407 43.914 44.3904 43.5326 44.2802C43.1512 44.17 42.7897 44.0028 42.4519 43.7787L44.6224 47.293L43.5835 47.5263H43.5816ZM40.6102 40.9791C41.1842 41.9086 41.7672 42.5589 42.3611 42.9318C42.955 43.3048 43.4781 43.4407 43.9322 43.3378C44.3935 43.2349 44.6478 42.9153 44.6932 42.3826C44.7386 41.8498 44.4625 41.0985 43.8668 40.134C43.2983 39.2136 42.7116 38.5615 42.1086 38.1757C41.5038 37.7899 40.9789 37.6466 40.5321 37.7458C40.0889 37.845 39.8492 38.1757 39.8092 38.7397C39.7693 39.3037 40.0363 40.0495 40.6102 40.9791Z" fill="black"/>
<path d="M51.9002 41.5026C51.7531 41.9748 51.5497 42.3293 51.2918 42.5681C51.0338 42.8069 50.6997 42.9704 50.2928 43.0623C49.619 43.2129 48.9814 43.1358 48.3803 42.829C47.7791 42.5222 47.2923 42.0684 46.92 41.4641C46.702 41.1113 46.5712 40.7715 46.5258 40.45C46.4822 40.1267 46.5168 39.853 46.6276 39.627C46.7402 39.4011 46.9073 39.2118 47.127 39.0594C47.2923 38.951 47.5611 38.8205 47.9371 38.6699C48.7036 38.365 49.2339 38.0857 49.53 37.8341C49.4301 37.665 49.3665 37.5585 49.3393 37.5126C49.0305 37.0147 48.7163 36.6841 48.3948 36.5242C47.9589 36.3075 47.4776 36.2579 46.9545 36.3736C46.4659 36.4838 46.1662 36.6639 46.0591 36.9192C45.9501 37.1727 45.9991 37.5677 46.2044 38.1059L45.0873 38.1702C44.8639 37.6375 44.7604 37.1892 44.7768 36.8274C44.7931 36.4655 44.9493 36.1532 45.2454 35.8941C45.5414 35.6351 45.9519 35.4459 46.4786 35.3283C47.0017 35.2107 47.4721 35.1887 47.8899 35.2603C48.3058 35.332 48.66 35.4606 48.9488 35.6461C49.2375 35.8317 49.5173 36.0852 49.7861 36.4067C49.9495 36.6069 50.1984 36.9798 50.5344 37.5236L51.5424 39.1549C52.2453 40.292 52.7121 41.0066 52.9409 41.2987C53.1716 41.5908 53.4368 41.859 53.7383 42.107L52.6522 42.3495C52.387 42.1199 52.1345 41.8388 51.8948 41.5045L51.9002 41.5026ZM50.1257 38.7893C49.8605 39.0557 49.3901 39.3368 48.7145 39.6307C48.3312 39.7979 48.0806 39.9485 47.9589 40.0789C47.8372 40.2094 47.7827 40.3729 47.7954 40.5676C47.8063 40.7641 47.879 40.9681 48.0097 41.1812C48.2113 41.5081 48.4838 41.7561 48.8289 41.927C49.1722 42.0978 49.5463 42.1383 49.9513 42.0464C50.3509 41.9564 50.6433 41.7745 50.8286 41.499C51.0139 41.2234 51.0684 40.8891 50.9921 40.4996C50.9321 40.1983 50.7378 39.7776 50.4036 39.2376L50.1257 38.7893Z" fill="black"/>
<path d="M57.3926 38.2768L58.5115 38.2051C58.9129 39.0594 59.0273 39.7721 58.8566 40.3453C58.6858 40.9166 58.2663 41.2785 57.5961 41.4273C56.7569 41.6147 55.8833 41.4439 54.9734 40.9111C54.0652 40.3802 53.237 39.5113 52.4941 38.3043C52.0128 37.5254 51.7004 36.8182 51.5587 36.1844C51.4171 35.5506 51.4806 35.0381 51.7476 34.6449C52.0146 34.2518 52.4124 33.9965 52.9409 33.8789C53.6075 33.7301 54.2741 33.8054 54.9425 34.1085C55.6109 34.4098 56.2302 34.9132 56.8005 35.6167L55.9033 36.0264C55.5073 35.5635 55.1114 35.2365 54.7154 35.0454C54.3195 34.8562 53.949 34.7993 53.6021 34.8764C53.079 34.994 52.7902 35.31 52.7357 35.8243C52.6812 36.3387 52.95 37.0754 53.5403 38.0325C54.1397 39.0024 54.7318 39.6729 55.3203 40.0404C55.9069 40.4096 56.4554 40.5364 56.964 40.4243C57.3727 40.3324 57.6215 40.1102 57.7123 39.7538C57.8031 39.3974 57.6978 38.9069 57.3926 38.2768Z" fill="black"/>
<path d="M63.6988 37.2296L64.8684 37.1451C65.1554 37.9222 65.1954 38.5652 64.9901 39.0759C64.7831 39.5866 64.3254 39.9209 63.6134 40.0807C62.7162 40.281 61.8044 40.1156 60.8781 39.5829C59.9518 39.0502 59.1254 38.1959 58.4007 37.0221C57.6506 35.8078 57.3345 34.8047 57.4508 34.0148C57.567 33.2249 58.0501 32.7362 58.8965 32.5452C59.7429 32.3541 60.5893 32.5415 61.5138 33.0816C62.4401 33.6217 63.2701 34.4888 64.0057 35.681C64.0511 35.7527 64.1147 35.8629 64.2019 36.008L59.6285 37.0312C60.157 37.8157 60.7219 38.3815 61.3249 38.725C61.9279 39.0704 62.4855 39.1843 62.9977 39.0704C63.3791 38.9859 63.6316 38.7948 63.7551 38.499C63.8786 38.2033 63.8604 37.7789 63.6988 37.2278V37.2296ZM59.0654 36.0154L62.4891 35.2493C62.0677 34.6523 61.6554 34.2261 61.2522 33.9707C60.6293 33.5739 60.0553 33.4343 59.5286 33.5519C59.0509 33.6584 58.7658 33.9358 58.6731 34.3859C58.5805 34.8341 58.7113 35.3779 59.0654 36.0154Z" fill="black"/>
</g>
<defs>
<clipPath id="clip0_639_102">
<rect width="66" height="54" fill="white"/>
</clipPath>
</defs>
</svg>
