<svg width="117" height="45" viewBox="0 0 117 45" fill="none" xmlns="http://www.w3.org/2000/svg">
<path fill-rule="evenodd" clip-rule="evenodd" d="M116.565 0.654053L0.565247 0.654053L0.565247 44.6541L116.565 44.6541V0.654053ZM13.7459 39.7324L24.0655 39.7324V38.0212L20.6222 38.0212L20.6222 13.9387H24.0655V12.217L13.7459 12.217V13.9387L17.1788 13.9387L17.1788 38.0212H13.7459L13.7459 39.7324ZM27.5194 39.7324H36.1173V38.0212H32.6739L32.6739 15.6604H34.3956V19.0933H36.1173V22.5366H37.839L37.839 25.98H39.5501V29.4128H41.2718V32.8562H42.9935V36.2996H44.7152V39.7324H49.8697L49.8697 13.9387L53.3131 13.9387V12.217L44.7152 12.217V13.9387H48.1585L48.1585 36.2996H46.4369V32.8562H44.7152V29.4128H42.9935V25.98H41.2718L41.2718 22.5366H39.5501V19.0933H37.839V15.6604H36.1173V12.217L27.5194 12.217V13.9387L30.9522 13.9387L30.9522 38.0212H27.5194V39.7324ZM55.9061 39.7324H66.2257V38.0212H62.7823V25.98H71.3802V29.4128H73.1019V20.8149H71.3802V24.2583H62.7823L62.7823 13.9387H71.3802V15.6604L73.1019 15.6604V17.3821H74.8236V19.0933H76.5452V15.6604H74.8236V12.217L55.9061 12.217V13.9387H59.339L59.339 38.0212H55.9061V39.7324ZM87.7047 13.9387L96.3026 13.9387V15.6604H98.0243V17.3821H99.7459V20.8149L101.457 20.8149V31.1345L99.7459 31.1345V34.5779H98.0243V36.2996H96.3026V38.0212H87.7047V36.2996H85.983V34.5779H84.2613V31.1345H82.5396V20.8149H84.2613V17.3821H85.983V15.6604H87.7047V13.9387ZM87.7047 13.9387H84.2613V15.6604L82.5396 15.6604V17.3821H80.818V20.8149H79.1068V31.1345H80.818V34.5779H82.5396V36.2996H84.2613V38.0212H87.7047V39.7324H96.3026V38.0212H99.7459V36.2996H101.457V34.5779H103.179V31.1345H104.9V20.8149H103.179V17.3821H101.457V15.6604H99.7459V13.9387H96.3026V12.217L87.7047 12.217V13.9387Z" fill="#5868F5"/>
</svg>
