<svg width="155" height="44" viewBox="0 0 155 44" fill="none" xmlns="http://www.w3.org/2000/svg">
<path fill-rule="evenodd" clip-rule="evenodd" d="M155 0L0 0L0 44L155 44V0ZM8.78262 39.4459H19.1022V37.7347H15.6588L15.6588 13.6522L24.2567 13.6522V15.3739H25.9784V23.9718H24.2567V25.6935H17.3805V27.4152H25.9784V25.6935H27.7001V23.9718H29.4218V15.3739H27.7001V13.6522L25.9784 13.6522V11.9305L8.78262 11.9305V13.6522H12.2155L12.2155 37.7347H8.78262L8.78262 39.4459ZM32.0043 39.4459H42.3239V37.7347H38.8805V27.4152H40.6022V29.1263H42.3239V30.848H44.0351V32.5697H45.7567V34.2914H47.4784V36.0131H49.2001V37.7347H50.9218V39.4459H57.798V37.7347H54.3546V36.0131H52.6435V34.2914H50.9218V32.5697H49.2001V30.848H47.4784V29.1263H45.7567V27.4152H49.2001V25.6935H50.9218V23.9718H52.6435L52.6435 15.3739H50.9218V13.6522L49.2001 13.6522V11.9305L32.0043 11.9305V13.6522H35.4372L35.4372 37.7347H32.0043V39.4459ZM47.4784 25.6935H38.8805L38.8805 13.6522H47.4784V15.3739H49.2001L49.2001 23.9718H47.4784V25.6935ZM60.391 39.4459L70.7106 39.4459V37.7347H67.2672V13.6522H70.7106V11.9305L60.391 11.9305V13.6522L63.8239 13.6522L63.8239 37.7347H60.391V39.4459ZM94.7721 18.8068H96.4938V15.3739H94.7721V11.9305L81.0197 11.9305V13.6522H77.5763V15.3739H75.8546V17.0956H74.133V20.5284H72.4218V30.848H74.133V34.2914H75.8546V36.0131H77.5763V37.7347H81.0197V39.4459H94.7721V36.0131H96.4938V32.5697H94.7721V34.2914H93.0609V36.0131H91.3393V37.7347H81.0197V36.0131H79.298V34.2914H77.5763V30.848L75.8546 30.848V20.5284L77.5763 20.5284V17.0956H79.298V15.3739H81.0197V13.6522L91.3393 13.6522V15.3739H93.0609V17.0956H94.7721V18.8068ZM99.9477 39.4459L120.587 39.4459V36.0131H122.298V32.5697H120.587V34.2914H118.865V36.0131H117.143V37.7347L106.824 37.7347V25.6935H115.422V29.1263H117.143V20.5284H115.422V23.9718H106.824V13.6522H115.422V15.3739L117.143 15.3739V17.0956H118.865V18.8068H120.587V15.3739H118.865V11.9305L99.9477 11.9305V13.6522H103.381V37.7347H99.9477V39.4459ZM127.442 39.4459H141.205V37.7347H142.927V36.0131H144.648V28.276L142.927 28.276V26.5543H141.205V24.8326H137.762V23.111H134.329V21.3893H130.885V19.6676H129.164V15.3739H130.885V13.6522L139.483 13.6522V15.3739H141.205V17.0956H142.927V13.6522H141.205V11.9305L129.164 11.9305V13.6522H127.442V15.3739L125.731 15.3739V21.3893H127.442V23.111H129.164V24.8326H132.607V26.5543H136.05V28.276H139.483V29.9872H141.205V36.0131H139.483V37.7347H130.885V36.0131H129.164V34.2914H127.442V32.5697H125.731V36.0131H127.442V39.4459Z" fill="#37A777"/>
</svg>
