<svg width="38" height="55" viewBox="0 0 38 55" fill="none" xmlns="http://www.w3.org/2000/svg">
<path d="M18.2812 8.1212C17.8162 5.6412 16.0182 2.6342 11.4922 2.6342C6.12919 2.6342 3.64919 7.1912 3.64919 12.1512C3.64919 17.1112 6.16019 21.6372 11.4612 21.6372C16.1732 21.6372 18.1262 18.4132 18.3742 15.3442H20.7302C20.1722 20.1802 16.7622 23.6212 11.4612 23.6212C5.44719 23.6212 1.32419 18.8782 1.32419 12.1512C1.32419 5.4552 5.44719 0.650199 11.4922 0.650199C16.6692 0.650199 20.0482 3.9672 20.6372 8.1212H18.2812ZM14.9022 48.0802H4.92019L2.68819 54.2182H0.363193L8.64019 32.0532H11.1822L19.5522 54.2182H17.1032L14.9022 48.0802ZM5.66419 46.0652H14.1582L9.94219 34.1922H9.88019L5.66419 46.0652ZM37.3239 46.7472C37.3239 51.4592 34.7819 54.6212 28.9849 54.6212C23.1879 54.6212 20.6459 51.4592 20.6459 46.7472V32.0532H22.9089V46.7472C22.9089 50.7152 24.8929 52.6372 28.9849 52.6372C33.0769 52.6372 35.0609 50.7152 35.0609 46.7472V32.0532H37.3239V46.7472Z" fill="#262626"/>
</svg>
