<svg width="116" height="44" viewBox="0 0 116 44" fill="none" xmlns="http://www.w3.org/2000/svg">
<path fill-rule="evenodd" clip-rule="evenodd" d="M116 0L0 0L0 44L116 44V0ZM13.1807 39.0784L23.5003 39.0784V37.3672L20.0569 37.3672L20.0569 13.2847H23.5003V11.563L13.1807 11.563V13.2847L16.6135 13.2847L16.6135 37.3672H13.1807L13.1807 39.0784ZM26.9541 39.0784H35.552V37.3672H32.1087L32.1087 15.0063H33.8303V18.4392H35.552V21.8826H37.2737L37.2737 25.3259H38.9849V28.7588H40.7066V32.2021H42.4282V35.6455H44.1499V39.0784H49.3045L49.3045 13.2847L52.7478 13.2847V11.563L44.1499 11.563V13.2847H47.5933L47.5933 35.6455H45.8716V32.2021H44.1499V28.7588H42.4282V25.3259H40.7066L40.7066 21.8826H38.9849V18.4392H37.2737V15.0063H35.552V11.563L26.9541 11.563V13.2847L30.387 13.2847L30.387 37.3672H26.9541V39.0784ZM55.3408 39.0784H65.6604V37.3672H62.2171V25.3259H70.815V28.7588H72.5366V20.1609H70.815V23.6042H62.2171L62.2171 13.2847H70.815V15.0063L72.5366 15.0063V16.728H74.2583V18.4392H75.98V15.0063H74.2583V11.563L55.3408 11.563V13.2847H58.7737L58.7737 37.3672H55.3408V39.0784ZM87.1394 13.2847L95.7373 13.2847V15.0063H97.459V16.728H99.1807V20.1609L100.892 20.1609V30.4805L99.1807 30.4805V33.9238H97.459V35.6455H95.7373V37.3672H87.1394V35.6455H85.4177V33.9238H83.6961V30.4805H81.9744V20.1609H83.6961V16.728H85.4177V15.0063H87.1394V13.2847ZM87.1394 13.2847H83.6961V15.0063L81.9744 15.0063V16.728H80.2527V20.1609H78.5415V30.4805H80.2527V33.9238H81.9744V35.6455H83.6961V37.3672H87.1394V39.0784H95.7373V37.3672H99.1807V35.6455H100.892V33.9238H102.614V30.4805H104.335V20.1609H102.614V16.728H100.892V15.0063H99.1807V13.2847H95.7373V11.563L87.1394 11.563V13.2847Z" fill="#5868F5"/>
</svg>
