<svg width="44" height="156" viewBox="0 0 44 156" fill="none" xmlns="http://www.w3.org/2000/svg">
<path fill-rule="evenodd" clip-rule="evenodd" d="M44 155.522L44 0.521851L0 0.521849L-6.77527e-06 155.522L44 155.522ZM4.55408 9.30447L4.55408 19.6241L6.26527 19.6241L6.26527 16.1807L30.3478 16.1807L30.3478 24.7786L28.6261 24.7786L28.6261 26.5003L20.0282 26.5003L20.0282 24.7786L18.3065 24.7786L18.3065 17.9024L16.5848 17.9024L16.5848 26.5003L18.3065 26.5003L18.3065 28.222L20.0282 28.222L20.0282 29.9436L28.6261 29.9436L28.6261 28.222L30.3478 28.222L30.3478 26.5003L32.0695 26.5003L32.0695 9.30447L30.3478 9.30447L30.3478 12.7373L6.26527 12.7373L6.26527 9.30447L4.55408 9.30447ZM4.55408 32.5262L4.55408 42.8457L6.26526 42.8457L6.26526 39.4024L16.5848 39.4024L16.5848 41.1241L14.8737 41.1241L14.8737 42.8457L13.152 42.8457L13.152 44.5569L11.4303 44.5569L11.4303 46.2786L9.70862 46.2786L9.70862 48.0003L7.98694 48.0003L7.98694 49.722L6.26526 49.722L6.26526 51.4436L4.55408 51.4436L4.55408 58.3199L6.26526 58.3199L6.26526 54.8765L7.98694 54.8765L7.98694 53.1653L9.70862 53.1653L9.70862 51.4436L11.4303 51.4436L11.4303 49.722L13.152 49.722L13.152 48.0003L14.8737 48.0003L14.8737 46.2786L16.5848 46.2786L16.5848 49.722L18.3065 49.722L18.3065 51.4436L20.0282 51.4436L20.0282 53.1653L28.6261 53.1653L28.6261 51.4436L30.3478 51.4436L30.3478 49.722L32.0695 49.722L32.0695 32.5262L30.3478 32.5262L30.3478 35.959L6.26526 35.959L6.26527 32.5262L4.55408 32.5262ZM18.3065 48.0003L18.3065 39.4024L30.3478 39.4024L30.3478 48.0003L28.6261 48.0003L28.6261 49.722L20.0282 49.722L20.0282 48.0003L18.3065 48.0003ZM4.55408 60.9129L4.55408 71.2325L6.26526 71.2325L6.26526 67.7891L30.3478 67.7891L30.3478 71.2325L32.0695 71.2325L32.0695 60.9129L30.3478 60.9129L30.3478 64.3457L6.26526 64.3457L6.26526 60.9129L4.55408 60.9129ZM25.1932 95.294L25.1932 97.0157L28.6261 97.0157L28.6261 95.294L32.0695 95.294L32.0695 81.5415L30.3478 81.5415L30.3478 78.0982L28.6261 78.0982L28.6261 76.3765L26.9044 76.3765L26.9044 74.6548L23.4716 74.6548L23.4716 72.9436L13.152 72.9436L13.152 74.6548L9.70862 74.6548L9.70862 76.3765L7.98694 76.3765L7.98694 78.0982L6.26526 78.0982L6.26526 81.5415L4.55408 81.5415L4.55408 95.294L7.98694 95.294L7.98694 97.0157L11.4303 97.0157L11.4303 95.294L9.70862 95.294L9.70862 93.5828L7.98694 93.5828L7.98694 91.8611L6.26526 91.8611L6.26526 81.5415L7.98694 81.5415L7.98694 79.8199L9.70862 79.8199L9.70862 78.0982L13.152 78.0982L13.152 76.3765L23.4716 76.3765L23.4716 78.0982L26.9044 78.0982L26.9044 79.8199L28.6261 79.8199L28.6261 81.5415L30.3478 81.5415L30.3478 91.8611L28.6261 91.8611L28.6261 93.5828L26.9044 93.5828L26.9044 95.294L25.1932 95.294ZM4.55408 100.47L4.55408 121.109L7.98694 121.109L7.98694 122.82L11.4303 122.82L11.4303 121.109L9.70862 121.109L9.70862 119.387L7.98694 119.387L7.98694 117.665L6.26526 117.665L6.26526 107.346L18.3065 107.346L18.3065 115.944L14.8737 115.944L14.8737 117.665L23.4716 117.665L23.4716 115.944L20.0282 115.944L20.0282 107.346L30.3478 107.346L30.3478 115.944L28.6261 115.944L28.6261 117.665L26.9044 117.665L26.9044 119.387L25.1932 119.387L25.1932 121.109L28.6261 121.109L28.6261 119.387L32.0695 119.387L32.0695 100.47L30.3478 100.47L30.3478 103.902L6.26526 103.902L6.26526 100.47L4.55408 100.47ZM4.55408 127.964L4.55408 141.727L6.26526 141.727L6.26526 143.449L7.98694 143.449L7.98694 145.17L15.724 145.17L15.724 143.449L17.4457 143.449L17.4457 141.727L19.1674 141.727L19.1674 138.283L20.889 138.283L20.889 134.851L22.6107 134.851L22.6107 131.407L24.3324 131.407L24.3324 129.686L28.6261 129.686L28.6261 131.407L30.3478 131.407L30.3478 140.005L28.6261 140.005L28.6261 141.727L26.9044 141.727L26.9044 143.449L30.3478 143.449L30.3478 141.727L32.0695 141.727L32.0695 129.686L30.3478 129.686L30.3478 127.964L28.6261 127.964L28.6261 126.253L22.6107 126.253L22.6107 127.964L20.889 127.964L20.889 129.686L19.1674 129.686L19.1674 133.129L17.4457 133.129L17.4457 136.572L15.724 136.572L15.724 140.005L14.0128 140.005L14.0128 141.727L7.98694 141.727L7.98694 140.005L6.26526 140.005L6.26526 131.407L7.98694 131.407L7.98694 129.686L9.70862 129.686L9.70862 127.964L11.4303 127.964L11.4303 126.253L7.98694 126.253L7.98694 127.964L4.55408 127.964Z" fill="#28A26D" fill-opacity="0.92"/>
</svg>
