<svg width="14" height="76" viewBox="0 0 14 76" fill="none" xmlns="http://www.w3.org/2000/svg">
<path d="M2.76994 72.0798L3.75921 71.0905L5.46619 72.7975L6.00932 73.7673L6.24209 73.6704L5.97052 72.7975L5.97052 55.2034L7.36714 55.2034L7.36714 72.7975L7.09557 73.6704L7.32834 73.7673L7.87147 72.7975L9.57845 71.0905L10.5677 72.0798L7.59991 75.0476H5.73775L2.76994 72.0798Z" fill="black"/>
<path d="M7.152 4.121C6.816 4.121 6.55934 4.261 6.382 4.541C6.20467 4.83033 6.088 5.353 6.032 6.109C5.96667 6.921 5.77067 7.537 5.444 7.957C5.12667 8.38633 4.66 8.601 4.044 8.601L3.96 8.601C3.624 8.601 3.32067 8.531 3.05 8.391C2.78867 8.26033 2.56467 8.07367 2.378 7.831C2.19133 7.59767 2.05133 7.30833 1.958 6.963C1.85533 6.627 1.804 6.25833 1.804 5.857C1.804 5.31567 1.874 4.849 2.014 4.457C2.16334 4.07433 2.35467 3.75233 2.588 3.491C2.83067 3.239 3.10134 3.04767 3.4 2.917C3.708 2.78633 4.016 2.71167 4.324 2.693L4.576 3.729C4.044 3.77567 3.61467 3.981 3.288 4.345C2.97067 4.709 2.812 5.19433 2.812 5.801C2.812 6.31433 2.91 6.725 3.106 7.033C3.31134 7.35033 3.596 7.509 3.96 7.509C4.352 7.509 4.632 7.355 4.8 7.047C4.968 6.739 5.07534 6.23967 5.122 5.549C5.178 4.74633 5.36467 4.13033 5.682 3.701C5.99934 3.27167 6.46134 3.057 7.068 3.057L7.152 3.057C7.47867 3.057 7.76334 3.127 8.006 3.267C8.258 3.407 8.468 3.59367 8.636 3.827C8.804 4.06967 8.93 4.34033 9.014 4.639C9.098 4.93767 9.14 5.25033 9.14 5.577C9.14 6.03433 9.07467 6.43567 8.944 6.781C8.82267 7.12633 8.65934 7.41567 8.454 7.649C8.258 7.88233 8.02934 8.05967 7.768 8.181C7.50667 8.31167 7.24533 8.39567 6.984 8.433L6.732 7.397C7.18 7.35033 7.53 7.16833 7.782 6.851C8.034 6.543 8.16 6.137 8.16 5.633C8.16 5.437 8.13667 5.24567 8.09 5.059C8.05267 4.88167 7.992 4.723 7.908 4.583C7.824 4.443 7.71667 4.331 7.586 4.247C7.46467 4.163 7.32 4.121 7.152 4.121ZM4.464 17.7473C4.08133 17.6726 3.72667 17.5419 3.4 17.3553C3.07333 17.1779 2.78867 16.9493 2.546 16.6693C2.31267 16.3893 2.13067 16.0626 2 15.6893C1.86933 15.3159 1.804 14.9006 1.804 14.4433C1.804 13.9579 1.88333 13.4959 2.042 13.0573C2.20067 12.6279 2.42933 12.2499 2.728 11.9233C3.036 11.5966 3.40933 11.3353 3.848 11.1393C4.28667 10.9526 4.79067 10.8593 5.36 10.8593L5.528 10.8593C6.088 10.8593 6.592 10.9526 7.04 11.1393C7.488 11.3353 7.866 11.5966 8.174 11.9233C8.482 12.2499 8.72 12.6279 8.888 13.0573C9.056 13.4959 9.14 13.9579 9.14 14.4433C9.14 14.8819 9.07467 15.2879 8.944 15.6613C8.81333 16.0346 8.62667 16.3613 8.384 16.6413C8.15067 16.9306 7.87067 17.1639 7.544 17.3413C7.21733 17.5279 6.86267 17.6539 6.48 17.7193L6.228 16.6273C6.47067 16.5993 6.704 16.5293 6.928 16.4173C7.16133 16.3146 7.362 16.1699 7.53 15.9833C7.70733 15.8059 7.84733 15.5866 7.95 15.3253C8.05267 15.0639 8.104 14.7606 8.104 14.4153C8.104 14.0793 8.03867 13.7619 7.908 13.4633C7.78667 13.1739 7.60933 12.9173 7.376 12.6933C7.152 12.4693 6.88133 12.2919 6.564 12.1613C6.24667 12.0399 5.90134 11.9793 5.528 11.9793L5.36 11.9793C4.968 11.9793 4.61333 12.0399 4.296 12.1613C3.988 12.2919 3.72667 12.4693 3.512 12.6933C3.29733 12.9173 3.12933 13.1786 3.008 13.4773C2.896 13.7759 2.84 14.0979 2.84 14.4433C2.84 14.7886 2.89133 15.0873 2.994 15.3393C3.106 15.6006 3.246 15.8199 3.414 15.9973C3.59133 16.1839 3.792 16.3286 4.016 16.4313C4.24 16.5433 4.47333 16.6179 4.716 16.6553L4.464 17.7473ZM8.944 19.4315L8.944 21.9515L8.02 21.9515L8.02 22.1195C8.40267 22.2969 8.68267 22.5489 8.86 22.8755C9.04667 23.2022 9.14 23.5755 9.14 23.9955C9.14 24.6955 8.91133 25.2602 8.454 25.6895C7.99667 26.1189 7.32933 26.3475 6.452 26.3755L6.284 25.2275C6.928 25.2275 7.39 25.0735 7.67 24.7655C7.95933 24.4575 8.104 24.0795 8.104 23.6315C8.104 23.3422 8.048 23.0902 7.936 22.8755C7.824 22.6702 7.67 22.4975 7.474 22.3575C7.278 22.2175 7.04933 22.1149 6.788 22.0495C6.52667 21.9842 6.24667 21.9515 5.948 21.9515L3.008 21.9515L3.008 23.7155L2 23.7155L2 19.2635L3.008 19.2635L3.008 20.8595L7.936 20.8595L7.936 19.4315L8.944 19.4315ZM5.388 34.9478C4.80933 34.9478 4.296 34.8498 3.848 34.6538C3.40933 34.4671 3.036 34.2151 2.728 33.8978C2.42933 33.5805 2.20067 33.2071 2.042 32.7778C1.88333 32.3578 1.804 31.9191 1.804 31.4618C1.804 30.9951 1.88333 30.5518 2.042 30.1318C2.20067 29.7118 2.42933 29.3431 2.728 29.0258C3.036 28.7085 3.40933 28.4518 3.848 28.2558C4.296 28.0691 4.80933 27.9758 5.388 27.9758L5.556 27.9758C6.12533 27.9758 6.62933 28.0691 7.068 28.2558C7.516 28.4518 7.894 28.7085 8.202 29.0258C8.51 29.3525 8.74333 29.7258 8.902 30.1458C9.06067 30.5658 9.14 31.0045 9.14 31.4618C9.14 31.9191 9.06067 32.3578 8.902 32.7778C8.74333 33.1978 8.51 33.5665 8.202 33.8838C7.894 34.2105 7.516 34.4671 7.068 34.6538C6.62933 34.8498 6.12533 34.9478 5.556 34.9478L5.388 34.9478ZM2.84 31.4618C2.84 31.7978 2.896 32.1058 3.008 32.3858C3.12933 32.6751 3.302 32.9271 3.526 33.1418C3.75 33.3565 4.016 33.5245 4.324 33.6458C4.64133 33.7671 4.996 33.8278 5.388 33.8278L5.556 33.8278C5.92933 33.8278 6.27 33.7671 6.578 33.6458C6.89533 33.5245 7.166 33.3565 7.39 33.1418C7.614 32.9271 7.78667 32.6751 7.908 32.3858C8.03867 32.0965 8.104 31.7885 8.104 31.4618C8.104 31.1351 8.03867 30.8271 7.908 30.5378C7.78667 30.2485 7.614 29.9965 7.39 29.7818C7.166 29.5671 6.89533 29.3991 6.578 29.2778C6.27 29.1565 5.92933 29.0958 5.556 29.0958L5.388 29.0958C4.996 29.0958 4.64133 29.1565 4.324 29.2778C4.016 29.3991 3.75 29.5671 3.526 29.7818C3.302 29.9965 3.12933 30.2438 3.008 30.5238C2.896 30.8131 2.84 31.1258 2.84 31.4618ZM3.008 36.9681L3.008 39.4881L10.792 39.4881L10.792 37.0521L11.8 37.0521L11.8 40.5801L3.008 40.5801L3.008 43.1001L2 43.1001L2 36.9681L3.008 36.9681ZM3.008 45.5403L3.008 48.0603L10.792 48.0603L10.792 45.6243L11.8 45.6243L11.8 49.1523L3.008 49.1523L3.008 51.6723L2 51.6723L2 45.5403L3.008 45.5403Z" fill="black"/>
</svg>
